<?xml version="1.0" encoding="UTF-8"?>
<svg xmlns="http://www.w3.org/2000/svg" width="1233.7" height="848.6" version="1.1" viewBox="0 0 1233.7 848.6">
  <!-- Generator: Adobe Illustrator 29.0.0, SVG Export Plug-In . SVG Version: 2.1.0 Build 186)  -->
  <defs>
    <style>
      .st0 {
        fill: #f15a24;
      }

      .st1 {
        fill: #efefef;
      }

      .st2 {
        stroke: #f15a24;
      }

      .st2, .st3, .st4 {
        fill: none;
        stroke-miterlimit: 10;
      }

      .st2, .st4 {
        stroke-width: 5px;
      }

      .st3 {
        stroke: #b5b5b5;
      }

      .st4 {
        stroke: #184e7a;
      }

      .st5 {
        fill: #f7f7f7;
      }

      .st6 {
        fill: #184e7a;
      }
    </style>
  </defs>
  <g id="bg">
    <g>
      <rect class="st5" x="133.7" y="55" width="1100" height="696.6"/>
      <polyline class="st1" points="1233.7 55 1233.7 751.7 133.7 751.7"/>
    </g>
  </g>
  <g id="line">
    <line class="st3" x1="133.7" y1="751.7" x2="1233.7" y2="751.7"/>
    <line class="st3" x1="133.7" y1="552.3" x2="1233.7" y2="552.3"/>
    <line class="st3" x1="133.7" y1="352.8" x2="1233.7" y2="352.8"/>
    <line class="st3" x1="133.7" y1="153.4" x2="1233.7" y2="153.4"/>
    <line class="st3" x1="133.7" y1="55" x2="1233.7" y2="55"/>
    <line class="st3" x1="133.7" y1="652.3" x2="1233.7" y2="652.3"/>
    <line class="st3" x1="133.7" y1="452.8" x2="1233.7" y2="452.8"/>
    <line class="st3" x1="133.7" y1="253.4" x2="1233.7" y2="253.4"/>
  </g>
  <g id="graph">
    <g>
      <line class="st2" x1="421.1" y1="241.7" x2="237.7" y2="304.4"/>
      <line class="st2" x1="604.5" y1="192.8" x2="421.1" y2="241.7"/>
      <line class="st2" x1="787.9" y1="151.9" x2="604.5" y2="192.8"/>
      <line class="st2" x1="971.3" y1="146.2" x2="787.9" y2="151.9"/>
      <line class="st2" x1="1154.7" y1="135.1" x2="971.3" y2="146.2"/>
    </g>
    <g>
      <line class="st4" x1="421.1" y1="643.1" x2="237.7" y2="689"/>
      <line class="st4" x1="604.5" y1="586.2" x2="421.1" y2="643.1"/>
      <line class="st4" x1="787.9" y1="543.3" x2="604.5" y2="586.2"/>
      <line class="st4" x1="971.3" y1="510.3" x2="787.9" y2="543.3"/>
      <line class="st4" x1="1154.7" y1="472.8" x2="971.3" y2="510.3"/>
    </g>
  </g>
  <g id="text">
    <g>
      <path d="M45.9,758.3c-1.6,0-1.9,0-2.6,0,.1-1.1.3-1.8.5-2.6.5-1.5,1.4-2.7,2.7-3.9.7-.6,1.3-1.1,3.3-2.4,1.8-1.3,2.4-1.9,2.4-2.9s-1.1-2.2-2.8-2.2-2,.4-2.5,1.2c-.3.5-.5.9-.6,1.8l-2.9-.3c.3-1.5.6-2.3,1.4-3.2,1-1.2,2.6-1.8,4.6-1.8,3.5,0,5.7,1.7,5.7,4.4s-.4,2.3-1.4,3.2c-.6.5-.8.7-3.4,2.5-.9.6-1.9,1.5-2.4,2-.6.6-.8,1-1.1,1.8h5.6c1.3,0,2.3,0,2.9-.2v2.6c-.9,0-1.7-.1-3-.1h-6.4Z"/>
      <path d="M59.4,757c-.6-.6-1.1-1.3-1.3-2-.5-1.4-.8-3-.8-4.6s.5-4.3,1.2-5.5c1.1-1.8,2.9-2.8,5.1-2.8s3.2.6,4.2,1.6c.6.6,1.1,1.3,1.3,2,.5,1.4.8,3,.8,4.6,0,2.5-.5,4.6-1.5,5.9-1.1,1.6-2.8,2.4-4.9,2.4s-3.1-.6-4.2-1.6ZM65.8,755.4c.9-.9,1.4-2.8,1.4-5.1s-.5-4.1-1.4-5.1c-.5-.5-1.3-.8-2.2-.8s-1.7.3-2.2,1c-.9,1-1.3,2.7-1.3,4.9s.4,3.8,1,4.8c.6.9,1.5,1.3,2.6,1.3s1.7-.3,2.2-.8Z"/>
      <path d="M74.9,758.3c0,1.7-.4,2.4-2.1,3l-.7-1.1c1.2-.3,1.5-.7,1.5-1.9h-1.7v-2.9h2.9v2.9Z"/>
      <path d="M79,757c-.6-.6-1.1-1.3-1.3-2-.5-1.4-.8-3-.8-4.6s.5-4.3,1.2-5.5c1.1-1.8,2.9-2.8,5.1-2.8s3.2.6,4.2,1.6c.6.6,1.1,1.3,1.3,2,.5,1.4.8,3,.8,4.6,0,2.5-.5,4.6-1.5,5.9-1.1,1.6-2.8,2.4-4.9,2.4s-3.1-.6-4.2-1.6ZM85.4,755.4c.9-.9,1.4-2.8,1.4-5.1s-.5-4.1-1.4-5.1c-.5-.5-1.3-.8-2.2-.8s-1.7.3-2.2,1c-.9,1-1.3,2.7-1.3,4.9s.4,3.8,1,4.8c.6.9,1.5,1.3,2.6,1.3s1.7-.3,2.2-.8Z"/>
      <path d="M93.3,757c-.6-.6-1.1-1.3-1.3-2-.5-1.4-.8-3-.8-4.6s.5-4.3,1.2-5.5c1.1-1.8,2.9-2.8,5.1-2.8s3.2.6,4.2,1.6c.6.6,1.1,1.3,1.3,2,.5,1.4.8,3,.8,4.6,0,2.5-.5,4.6-1.5,5.9-1.1,1.6-2.8,2.4-4.9,2.4s-3.1-.6-4.2-1.6ZM99.7,755.4c.9-.9,1.4-2.8,1.4-5.1s-.5-4.1-1.4-5.1c-.5-.5-1.3-.8-2.2-.8s-1.7.3-2.2,1c-.9,1-1.3,2.7-1.3,4.9s.4,3.8,1,4.8c.6.9,1.5,1.3,2.6,1.3s1.7-.3,2.2-.8Z"/>
      <path d="M107.5,757c-.6-.6-1.1-1.3-1.3-2-.5-1.4-.8-3-.8-4.6s.5-4.3,1.2-5.5c1.1-1.8,2.9-2.8,5.1-2.8s3.2.6,4.2,1.6c.6.6,1.1,1.3,1.3,2,.5,1.4.8,3,.8,4.6,0,2.5-.5,4.6-1.5,5.9-1.1,1.6-2.8,2.4-4.9,2.4s-3.1-.6-4.2-1.6ZM113.9,755.4c.9-.9,1.4-2.8,1.4-5.1s-.5-4.1-1.4-5.1c-.5-.5-1.3-.8-2.2-.8s-1.7.3-2.2,1c-.9,1-1.3,2.7-1.3,4.9s.4,3.8,1,4.8c.6.9,1.5,1.3,2.6,1.3s1.7-.3,2.2-.8Z"/>
    </g>
    <g>
      <path d="M45.9,554.6c.3.9.4,1.2.9,1.6.7.5,1.5.8,2.4.8,2,0,3.2-1,3.2-2.6s-.4-1.7-1.1-2.1c-.5-.3-1.4-.5-2.3-.5s-1.5,0-2.1,0v-2.5c.6,0,1.1.1,1.9.1,2,0,3.2-.9,3.2-2.5s-.9-2.2-2.6-2.2-1.7.2-2.2.6c-.4.4-.6.7-.8,1.5l-2.9-.5c.5-1.5,1-2.2,1.9-2.9,1-.7,2.3-1.1,3.9-1.1,3.3,0,5.5,1.7,5.5,4.3s-.5,2.3-1.4,2.9c-.4.3-.9.5-1.9.8,1.4.2,2.2.6,2.9,1.3.7.7,1,1.6,1,2.8s-.5,2.2-1.2,2.9c-1.1,1.1-2.8,1.6-4.9,1.6s-3.9-.6-5.1-1.9c-.5-.6-.8-1.1-1.1-2.2l2.9-.6Z"/>
      <path d="M59.4,557.6c-.6-.6-1.1-1.3-1.3-2-.5-1.4-.8-3-.8-4.6s.5-4.3,1.2-5.5c1.1-1.8,2.9-2.8,5.1-2.8s3.2.6,4.2,1.6c.6.6,1.1,1.3,1.3,2,.5,1.4.8,3,.8,4.6,0,2.5-.5,4.6-1.5,5.9-1.1,1.6-2.8,2.4-4.9,2.4s-3.1-.6-4.2-1.6ZM65.8,556.1c.9-.9,1.4-2.8,1.4-5.1s-.5-4.1-1.4-5.1c-.5-.5-1.3-.8-2.2-.8s-1.7.3-2.2,1c-.9,1-1.3,2.7-1.3,4.9s.4,3.8,1,4.8c.6.9,1.5,1.3,2.6,1.3s1.7-.3,2.2-.8Z"/>
      <path d="M74.9,558.9c0,1.7-.4,2.4-2.1,3l-.7-1.1c1.2-.3,1.5-.7,1.5-1.9h-1.7v-2.9h2.9v2.9Z"/>
      <path d="M79,557.6c-.6-.6-1.1-1.3-1.3-2-.5-1.4-.8-3-.8-4.6s.5-4.3,1.2-5.5c1.1-1.8,2.9-2.8,5.1-2.8s3.2.6,4.2,1.6c.6.6,1.1,1.3,1.3,2,.5,1.4.8,3,.8,4.6,0,2.5-.5,4.6-1.5,5.9-1.1,1.6-2.8,2.4-4.9,2.4s-3.1-.6-4.2-1.6ZM85.4,556.1c.9-.9,1.4-2.8,1.4-5.1s-.5-4.1-1.4-5.1c-.5-.5-1.3-.8-2.2-.8s-1.7.3-2.2,1c-.9,1-1.3,2.7-1.3,4.9s.4,3.8,1,4.8c.6.9,1.5,1.3,2.6,1.3s1.7-.3,2.2-.8Z"/>
      <path d="M93.3,557.6c-.6-.6-1.1-1.3-1.3-2-.5-1.4-.8-3-.8-4.6s.5-4.3,1.2-5.5c1.1-1.8,2.9-2.8,5.1-2.8s3.2.6,4.2,1.6c.6.6,1.1,1.3,1.3,2,.5,1.4.8,3,.8,4.6,0,2.5-.5,4.6-1.5,5.9-1.1,1.6-2.8,2.4-4.9,2.4s-3.1-.6-4.2-1.6ZM99.7,556.1c.9-.9,1.4-2.8,1.4-5.1s-.5-4.1-1.4-5.1c-.5-.5-1.3-.8-2.2-.8s-1.7.3-2.2,1c-.9,1-1.3,2.7-1.3,4.9s.4,3.8,1,4.8c.6.9,1.5,1.3,2.6,1.3s1.7-.3,2.2-.8Z"/>
      <path d="M107.5,557.6c-.6-.6-1.1-1.3-1.3-2-.5-1.4-.8-3-.8-4.6s.5-4.3,1.2-5.5c1.1-1.8,2.9-2.8,5.1-2.8s3.2.6,4.2,1.6c.6.6,1.1,1.3,1.3,2,.5,1.4.8,3,.8,4.6,0,2.5-.5,4.6-1.5,5.9-1.1,1.6-2.8,2.4-4.9,2.4s-3.1-.6-4.2-1.6ZM113.9,556.1c.9-.9,1.4-2.8,1.4-5.1s-.5-4.1-1.4-5.1c-.5-.5-1.3-.8-2.2-.8s-1.7.3-2.2,1c-.9,1-1.3,2.7-1.3,4.9s.4,3.8,1,4.8c.6.9,1.5,1.3,2.6,1.3s1.7-.3,2.2-.8Z"/>
    </g>
    <g>
      <path d="M56,356c-.7-.1-1.2-.1-2-.1h-.7v1.4c0,1,0,1.5.2,2.3h-2.8c.1-.7.2-1.3.2-2.3v-1.4h-5.5c-1.2,0-1.8,0-2.5,0v-2.5c.7-.7.9-1,1.6-1.8l4.7-5.8c.9-1.1,1.2-1.5,1.7-2.2h2.7c-.1,1.2-.1,1.9-.1,3.4v6.6h.7c.8,0,1.3,0,2-.1v2.6ZM50.8,349.5c0-.9,0-1.6,0-2.4-.4.6-.6.9-1.4,1.8l-3.8,4.8h5.1v-4.1Z"/>
      <path d="M59.4,358.3c-.6-.6-1.1-1.3-1.3-2-.5-1.4-.8-3-.8-4.6s.5-4.3,1.2-5.5c1.1-1.8,2.9-2.8,5.1-2.8s3.2.6,4.2,1.6c.6.6,1.1,1.3,1.3,2,.5,1.4.8,3,.8,4.6,0,2.5-.5,4.6-1.5,5.9-1.1,1.6-2.8,2.4-4.9,2.4s-3.1-.6-4.2-1.6ZM65.8,356.8c.9-.9,1.4-2.8,1.4-5.1s-.5-4.1-1.4-5.1c-.5-.5-1.3-.8-2.2-.8s-1.7.3-2.2,1c-.9,1-1.3,2.7-1.3,4.9s.4,3.8,1,4.8c.6.9,1.5,1.3,2.6,1.3s1.7-.3,2.2-.8Z"/>
      <path d="M74.9,359.6c0,1.7-.4,2.4-2.1,3l-.7-1.1c1.2-.3,1.5-.7,1.5-1.9h-1.7v-2.9h2.9v2.9Z"/>
      <path d="M79,358.3c-.6-.6-1.1-1.3-1.3-2-.5-1.4-.8-3-.8-4.6s.5-4.3,1.2-5.5c1.1-1.8,2.9-2.8,5.1-2.8s3.2.6,4.2,1.6c.6.6,1.1,1.3,1.3,2,.5,1.4.8,3,.8,4.6,0,2.5-.5,4.6-1.5,5.9-1.1,1.6-2.8,2.4-4.9,2.4s-3.1-.6-4.2-1.6ZM85.4,356.8c.9-.9,1.4-2.8,1.4-5.1s-.5-4.1-1.4-5.1c-.5-.5-1.3-.8-2.2-.8s-1.7.3-2.2,1c-.9,1-1.3,2.7-1.3,4.9s.4,3.8,1,4.8c.6.9,1.5,1.3,2.6,1.3s1.7-.3,2.2-.8Z"/>
      <path d="M93.3,358.3c-.6-.6-1.1-1.3-1.3-2-.5-1.4-.8-3-.8-4.6s.5-4.3,1.2-5.5c1.1-1.8,2.9-2.8,5.1-2.8s3.2.6,4.2,1.6c.6.6,1.1,1.3,1.3,2,.5,1.4.8,3,.8,4.6,0,2.5-.5,4.6-1.5,5.9-1.1,1.6-2.8,2.4-4.9,2.4s-3.1-.6-4.2-1.6ZM99.7,356.8c.9-.9,1.4-2.8,1.4-5.1s-.5-4.1-1.4-5.1c-.5-.5-1.3-.8-2.2-.8s-1.7.3-2.2,1c-.9,1-1.3,2.7-1.3,4.9s.4,3.8,1,4.8c.6.9,1.5,1.3,2.6,1.3s1.7-.3,2.2-.8Z"/>
      <path d="M107.5,358.3c-.6-.6-1.1-1.3-1.3-2-.5-1.4-.8-3-.8-4.6s.5-4.3,1.2-5.5c1.1-1.8,2.9-2.8,5.1-2.8s3.2.6,4.2,1.6c.6.6,1.1,1.3,1.3,2,.5,1.4.8,3,.8,4.6,0,2.5-.5,4.6-1.5,5.9-1.1,1.6-2.8,2.4-4.9,2.4s-3.1-.6-4.2-1.6ZM113.9,356.8c.9-.9,1.4-2.8,1.4-5.1s-.5-4.1-1.4-5.1c-.5-.5-1.3-.8-2.2-.8s-1.7.3-2.2,1c-.9,1-1.3,2.7-1.3,4.9s.4,3.8,1,4.8c.6.9,1.5,1.3,2.6,1.3s1.7-.3,2.2-.8Z"/>
    </g>
    <g>
      <path d="M46.2,156.1c.2.6.3.8.6,1.2.6.7,1.4,1,2.5,1,2,0,3.3-1.3,3.3-3.3s-1.2-3.2-3.1-3.2-1.9.3-2.5.9c-.3.3-.4.5-.6.9l-2.5-.2c.2-1.4.2-1.5.3-2.1l.5-5c0-.4,0-1,0-2,.6,0,1.1,0,2.1,0h4.9c1.4,0,1.9,0,2.8-.2v2.5c-.9-.1-1.7-.2-2.8-.2h-4.7l-.3,3.5c0,.2,0,.4-.1.8,1-.8,2-1.2,3.4-1.2s2.9.5,3.9,1.5c1,1,1.4,2.2,1.4,3.8,0,3.5-2.3,5.7-6,5.7s-3.5-.6-4.6-1.7c-.5-.6-.8-1.1-1.3-2.2l2.8-.6Z"/>
      <path d="M59.4,159c-.6-.6-1.1-1.3-1.3-2-.5-1.4-.8-3-.8-4.6s.5-4.3,1.2-5.5c1.1-1.8,2.9-2.8,5.1-2.8s3.2.6,4.2,1.6c.6.6,1.1,1.3,1.3,2,.5,1.4.8,3,.8,4.6,0,2.5-.5,4.6-1.5,5.9-1.1,1.6-2.8,2.4-4.9,2.4s-3.1-.6-4.2-1.6ZM65.8,157.4c.9-.9,1.4-2.8,1.4-5.1s-.5-4.1-1.4-5.1c-.5-.5-1.3-.8-2.2-.8s-1.7.3-2.2,1c-.9,1-1.3,2.7-1.3,4.9s.4,3.8,1,4.8c.6.9,1.5,1.3,2.6,1.3s1.7-.3,2.2-.8Z"/>
      <path d="M74.9,160.3c0,1.7-.4,2.4-2.1,3l-.7-1.1c1.2-.3,1.5-.7,1.5-1.9h-1.7v-2.9h2.9v2.9Z"/>
      <path d="M79,159c-.6-.6-1.1-1.3-1.3-2-.5-1.4-.8-3-.8-4.6s.5-4.3,1.2-5.5c1.1-1.8,2.9-2.8,5.1-2.8s3.2.6,4.2,1.6c.6.6,1.1,1.3,1.3,2,.5,1.4.8,3,.8,4.6,0,2.5-.5,4.6-1.5,5.9-1.1,1.6-2.8,2.4-4.9,2.4s-3.1-.6-4.2-1.6ZM85.4,157.4c.9-.9,1.4-2.8,1.4-5.1s-.5-4.1-1.4-5.1c-.5-.5-1.3-.8-2.2-.8s-1.7.3-2.2,1c-.9,1-1.3,2.7-1.3,4.9s.4,3.8,1,4.8c.6.9,1.5,1.3,2.6,1.3s1.7-.3,2.2-.8Z"/>
      <path d="M93.3,159c-.6-.6-1.1-1.3-1.3-2-.5-1.4-.8-3-.8-4.6s.5-4.3,1.2-5.5c1.1-1.8,2.9-2.8,5.1-2.8s3.2.6,4.2,1.6c.6.6,1.1,1.3,1.3,2,.5,1.4.8,3,.8,4.6,0,2.5-.5,4.6-1.5,5.9-1.1,1.6-2.8,2.4-4.9,2.4s-3.1-.6-4.2-1.6ZM99.7,157.4c.9-.9,1.4-2.8,1.4-5.1s-.5-4.1-1.4-5.1c-.5-.5-1.3-.8-2.2-.8s-1.7.3-2.2,1c-.9,1-1.3,2.7-1.3,4.9s.4,3.8,1,4.8c.6.9,1.5,1.3,2.6,1.3s1.7-.3,2.2-.8Z"/>
      <path d="M107.5,159c-.6-.6-1.1-1.3-1.3-2-.5-1.4-.8-3-.8-4.6s.5-4.3,1.2-5.5c1.1-1.8,2.9-2.8,5.1-2.8s3.2.6,4.2,1.6c.6.6,1.1,1.3,1.3,2,.5,1.4.8,3,.8,4.6,0,2.5-.5,4.6-1.5,5.9-1.1,1.6-2.8,2.4-4.9,2.4s-3.1-.6-4.2-1.6ZM113.9,157.4c.9-.9,1.4-2.8,1.4-5.1s-.5-4.1-1.4-5.1c-.5-.5-1.3-.8-2.2-.8s-1.7.3-2.2,1c-.9,1-1.3,2.7-1.3,4.9s.4,3.8,1,4.8c.6.9,1.5,1.3,2.6,1.3s1.7-.3,2.2-.8Z"/>
    </g>
    <g>
      <path d="M45.9,658.6c-1.6,0-1.9,0-2.6,0,.1-1.1.3-1.8.5-2.6.5-1.5,1.4-2.7,2.7-3.9.7-.6,1.3-1.1,3.3-2.4,1.8-1.3,2.4-1.9,2.4-2.9s-1.1-2.2-2.8-2.2-2,.4-2.5,1.2c-.3.5-.5.9-.6,1.8l-2.9-.3c.3-1.5.6-2.3,1.4-3.2,1-1.2,2.6-1.8,4.6-1.8,3.5,0,5.7,1.7,5.7,4.4s-.4,2.3-1.4,3.2c-.6.5-.8.7-3.4,2.5-.9.6-1.9,1.5-2.4,2-.6.6-.8,1-1.1,1.8h5.6c1.3,0,2.3,0,2.9-.2v2.6c-.9,0-1.7-.1-3-.1h-6.4Z"/>
      <path d="M60.4,654.4c.2.6.3.8.6,1.2.6.7,1.4,1,2.5,1,2,0,3.3-1.3,3.3-3.3s-1.2-3.2-3.1-3.2-1.9.3-2.5.9c-.3.3-.4.5-.6.9l-2.5-.2c.2-1.4.2-1.5.3-2.1l.5-5c0-.4,0-1,0-2,.6,0,1.1,0,2.1,0h4.9c1.4,0,1.9,0,2.8-.2v2.5c-.9-.1-1.7-.2-2.8-.2h-4.7l-.3,3.5c0,.2,0,.4-.1.8,1-.8,2-1.2,3.4-1.2s2.9.5,3.9,1.5c1,1,1.4,2.2,1.4,3.8,0,3.5-2.3,5.7-6,5.7s-3.5-.6-4.6-1.7c-.5-.6-.8-1.1-1.3-2.2l2.8-.6Z"/>
      <path d="M74.9,658.6c0,1.7-.4,2.4-2.1,3l-.7-1.1c1.2-.3,1.5-.7,1.5-1.9h-1.7v-2.9h2.9v2.9Z"/>
      <path d="M79,657.3c-.6-.6-1.1-1.3-1.3-2-.5-1.4-.8-3-.8-4.6s.5-4.3,1.2-5.5c1.1-1.8,2.9-2.8,5.1-2.8s3.2.6,4.2,1.6c.6.6,1.1,1.3,1.3,2,.5,1.4.8,3,.8,4.6,0,2.5-.5,4.6-1.5,5.9-1.1,1.6-2.8,2.4-4.9,2.4s-3.1-.6-4.2-1.6ZM85.4,655.7c.9-.9,1.4-2.8,1.4-5.1s-.5-4.1-1.4-5.1c-.5-.5-1.3-.8-2.2-.8s-1.7.3-2.2,1c-.9,1-1.3,2.7-1.3,4.9s.4,3.8,1,4.8c.6.9,1.5,1.3,2.6,1.3s1.7-.3,2.2-.8Z"/>
      <path d="M93.3,657.3c-.6-.6-1.1-1.3-1.3-2-.5-1.4-.8-3-.8-4.6s.5-4.3,1.2-5.5c1.1-1.8,2.9-2.8,5.1-2.8s3.2.6,4.2,1.6c.6.6,1.1,1.3,1.3,2,.5,1.4.8,3,.8,4.6,0,2.5-.5,4.6-1.5,5.9-1.1,1.6-2.8,2.4-4.9,2.4s-3.1-.6-4.2-1.6ZM99.7,655.7c.9-.9,1.4-2.8,1.4-5.1s-.5-4.1-1.4-5.1c-.5-.5-1.3-.8-2.2-.8s-1.7.3-2.2,1c-.9,1-1.3,2.7-1.3,4.9s.4,3.8,1,4.8c.6.9,1.5,1.3,2.6,1.3s1.7-.3,2.2-.8Z"/>
      <path d="M107.5,657.3c-.6-.6-1.1-1.3-1.3-2-.5-1.4-.8-3-.8-4.6s.5-4.3,1.2-5.5c1.1-1.8,2.9-2.8,5.1-2.8s3.2.6,4.2,1.6c.6.6,1.1,1.3,1.3,2,.5,1.4.8,3,.8,4.6,0,2.5-.5,4.6-1.5,5.9-1.1,1.6-2.8,2.4-4.9,2.4s-3.1-.6-4.2-1.6ZM113.9,655.7c.9-.9,1.4-2.8,1.4-5.1s-.5-4.1-1.4-5.1c-.5-.5-1.3-.8-2.2-.8s-1.7.3-2.2,1c-.9,1-1.3,2.7-1.3,4.9s.4,3.8,1,4.8c.6.9,1.5,1.3,2.6,1.3s1.7-.3,2.2-.8Z"/>
    </g>
    <g>
      <path d="M45.9,454.9c.3.9.4,1.2.9,1.6.7.5,1.5.8,2.4.8,2,0,3.2-1,3.2-2.6s-.4-1.7-1.1-2.1c-.5-.3-1.4-.5-2.3-.5s-1.5,0-2.1,0v-2.5c.6,0,1.1.1,1.9.1,2,0,3.2-.9,3.2-2.5s-.9-2.2-2.6-2.2-1.7.2-2.2.6c-.4.4-.6.7-.8,1.5l-2.9-.5c.5-1.5,1-2.2,1.9-2.9,1-.7,2.3-1.1,3.9-1.1,3.3,0,5.5,1.7,5.5,4.3s-.5,2.3-1.4,2.9c-.4.3-.9.5-1.9.8,1.4.2,2.2.6,2.9,1.3.7.7,1,1.6,1,2.8s-.5,2.2-1.2,2.9c-1.1,1.1-2.8,1.6-4.9,1.6s-3.9-.6-5.1-1.9c-.5-.6-.8-1.1-1.1-2.2l2.9-.6Z"/>
      <path d="M60.4,455.1c.2.6.3.8.6,1.2.6.7,1.4,1,2.5,1,2,0,3.3-1.3,3.3-3.3s-1.2-3.2-3.1-3.2-1.9.3-2.5.9c-.3.3-.4.5-.6.9l-2.5-.2c.2-1.4.2-1.5.3-2.1l.5-5c0-.4,0-1,0-2,.6,0,1.1,0,2.1,0h4.9c1.4,0,1.9,0,2.8-.2v2.5c-.9-.1-1.7-.2-2.8-.2h-4.7l-.3,3.5c0,.2,0,.4-.1.8,1-.8,2-1.2,3.4-1.2s2.9.5,3.9,1.5c1,1,1.4,2.2,1.4,3.8,0,3.5-2.3,5.7-6,5.7s-3.5-.6-4.6-1.7c-.5-.6-.8-1.1-1.3-2.2l2.8-.6Z"/>
      <path d="M74.9,459.3c0,1.7-.4,2.4-2.1,3l-.7-1.1c1.2-.3,1.5-.7,1.5-1.9h-1.7v-2.9h2.9v2.9Z"/>
      <path d="M79,458c-.6-.6-1.1-1.3-1.3-2-.5-1.4-.8-3-.8-4.6s.5-4.3,1.2-5.5c1.1-1.8,2.9-2.8,5.1-2.8s3.2.6,4.2,1.6c.6.6,1.1,1.3,1.3,2,.5,1.4.8,3,.8,4.6,0,2.5-.5,4.6-1.5,5.9-1.1,1.6-2.8,2.4-4.9,2.4s-3.1-.6-4.2-1.6ZM85.4,456.4c.9-.9,1.4-2.8,1.4-5.1s-.5-4.1-1.4-5.1c-.5-.5-1.3-.8-2.2-.8s-1.7.3-2.2,1c-.9,1-1.3,2.7-1.3,4.9s.4,3.8,1,4.8c.6.9,1.5,1.3,2.6,1.3s1.7-.3,2.2-.8Z"/>
      <path d="M93.3,458c-.6-.6-1.1-1.3-1.3-2-.5-1.4-.8-3-.8-4.6s.5-4.3,1.2-5.5c1.1-1.8,2.9-2.8,5.1-2.8s3.2.6,4.2,1.6c.6.6,1.1,1.3,1.3,2,.5,1.4.8,3,.8,4.6,0,2.5-.5,4.6-1.5,5.9-1.1,1.6-2.8,2.4-4.9,2.4s-3.1-.6-4.2-1.6ZM99.7,456.4c.9-.9,1.4-2.8,1.4-5.1s-.5-4.1-1.4-5.1c-.5-.5-1.3-.8-2.2-.8s-1.7.3-2.2,1c-.9,1-1.3,2.7-1.3,4.9s.4,3.8,1,4.8c.6.9,1.5,1.3,2.6,1.3s1.7-.3,2.2-.8Z"/>
      <path d="M107.5,458c-.6-.6-1.1-1.3-1.3-2-.5-1.4-.8-3-.8-4.6s.5-4.3,1.2-5.5c1.1-1.8,2.9-2.8,5.1-2.8s3.2.6,4.2,1.6c.6.6,1.1,1.3,1.3,2,.5,1.4.8,3,.8,4.6,0,2.5-.5,4.6-1.5,5.9-1.1,1.6-2.8,2.4-4.9,2.4s-3.1-.6-4.2-1.6ZM113.9,456.4c.9-.9,1.4-2.8,1.4-5.1s-.5-4.1-1.4-5.1c-.5-.5-1.3-.8-2.2-.8s-1.7.3-2.2,1c-.9,1-1.3,2.7-1.3,4.9s.4,3.8,1,4.8c.6.9,1.5,1.3,2.6,1.3s1.7-.3,2.2-.8Z"/>
    </g>
    <g>
      <path d="M56,256.4c-.7-.1-1.2-.1-2-.1h-.7v1.4c0,1,0,1.5.2,2.3h-2.8c.1-.7.2-1.3.2-2.3v-1.4h-5.5c-1.2,0-1.8,0-2.5,0v-2.5c.7-.7.9-1,1.6-1.8l4.7-5.8c.9-1.1,1.2-1.5,1.7-2.2h2.7c-.1,1.2-.1,1.9-.1,3.4v6.6h.7c.8,0,1.3,0,2-.1v2.6ZM50.8,249.8c0-.9,0-1.6,0-2.4-.4.6-.6.9-1.4,1.8l-3.8,4.8h5.1v-4.1Z"/>
      <path d="M60.4,255.8c.2.6.3.8.6,1.2.6.7,1.4,1,2.5,1,2,0,3.3-1.3,3.3-3.3s-1.2-3.2-3.1-3.2-1.9.3-2.5.9c-.3.3-.4.5-.6.9l-2.5-.2c.2-1.4.2-1.5.3-2.1l.5-5c0-.4,0-1,0-2,.6,0,1.1,0,2.1,0h4.9c1.4,0,1.9,0,2.8-.2v2.5c-.9-.1-1.7-.2-2.8-.2h-4.7l-.3,3.5c0,.2,0,.4-.1.8,1-.8,2-1.2,3.4-1.2s2.9.5,3.9,1.5c1,1,1.4,2.2,1.4,3.8,0,3.5-2.3,5.7-6,5.7s-3.5-.6-4.6-1.7c-.5-.6-.8-1.1-1.3-2.2l2.8-.6Z"/>
      <path d="M74.9,259.9c0,1.7-.4,2.4-2.1,3l-.7-1.1c1.2-.3,1.5-.7,1.5-1.9h-1.7v-2.9h2.9v2.9Z"/>
      <path d="M79,258.6c-.6-.6-1.1-1.3-1.3-2-.5-1.4-.8-3-.8-4.6s.5-4.3,1.2-5.5c1.1-1.8,2.9-2.8,5.1-2.8s3.2.6,4.2,1.6c.6.6,1.1,1.3,1.3,2,.5,1.4.8,3,.8,4.6,0,2.5-.5,4.6-1.5,5.9-1.1,1.6-2.8,2.4-4.9,2.4s-3.1-.6-4.2-1.6ZM85.4,257.1c.9-.9,1.4-2.8,1.4-5.1s-.5-4.1-1.4-5.1c-.5-.5-1.3-.8-2.2-.8s-1.7.3-2.2,1c-.9,1-1.3,2.7-1.3,4.9s.4,3.8,1,4.8c.6.9,1.5,1.3,2.6,1.3s1.7-.3,2.2-.8Z"/>
      <path d="M93.3,258.6c-.6-.6-1.1-1.3-1.3-2-.5-1.4-.8-3-.8-4.6s.5-4.3,1.2-5.5c1.1-1.8,2.9-2.8,5.1-2.8s3.2.6,4.2,1.6c.6.6,1.1,1.3,1.3,2,.5,1.4.8,3,.8,4.6,0,2.5-.5,4.6-1.5,5.9-1.1,1.6-2.8,2.4-4.9,2.4s-3.1-.6-4.2-1.6ZM99.7,257.1c.9-.9,1.4-2.8,1.4-5.1s-.5-4.1-1.4-5.1c-.5-.5-1.3-.8-2.2-.8s-1.7.3-2.2,1c-.9,1-1.3,2.7-1.3,4.9s.4,3.8,1,4.8c.6.9,1.5,1.3,2.6,1.3s1.7-.3,2.2-.8Z"/>
      <path d="M107.5,258.6c-.6-.6-1.1-1.3-1.3-2-.5-1.4-.8-3-.8-4.6s.5-4.3,1.2-5.5c1.1-1.8,2.9-2.8,5.1-2.8s3.2.6,4.2,1.6c.6.6,1.1,1.3,1.3,2,.5,1.4.8,3,.8,4.6,0,2.5-.5,4.6-1.5,5.9-1.1,1.6-2.8,2.4-4.9,2.4s-3.1-.6-4.2-1.6ZM113.9,257.1c.9-.9,1.4-2.8,1.4-5.1s-.5-4.1-1.4-5.1c-.5-.5-1.3-.8-2.2-.8s-1.7.3-2.2,1c-.9,1-1.3,2.7-1.3,4.9s.4,3.8,1,4.8c.6.9,1.5,1.3,2.6,1.3s1.7-.3,2.2-.8Z"/>
    </g>
    <g>
      <path d="M46.2,56.5c.2.6.3.8.6,1.2.6.7,1.4,1,2.5,1,2,0,3.3-1.3,3.3-3.3s-1.2-3.2-3.1-3.2-1.9.3-2.5.9c-.3.3-.4.5-.6.9l-2.5-.2c.2-1.4.2-1.5.3-2.1l.5-5c0-.4,0-1,0-2,.6,0,1.1,0,2.1,0h4.9c1.4,0,1.9,0,2.8-.2v2.5c-.9-.1-1.7-.2-2.8-.2h-4.7l-.3,3.5c0,.2,0,.4-.1.8,1-.8,2-1.2,3.4-1.2s2.9.5,3.9,1.5c1,1,1.4,2.2,1.4,3.8,0,3.5-2.3,5.7-6,5.7s-3.5-.6-4.6-1.7c-.5-.6-.8-1.1-1.3-2.2l2.8-.6Z"/>
      <path d="M60.4,56.5c.2.6.3.8.6,1.2.6.7,1.4,1,2.5,1,2,0,3.3-1.3,3.3-3.3s-1.2-3.2-3.1-3.2-1.9.3-2.5.9c-.3.3-.4.5-.6.9l-2.5-.2c.2-1.4.2-1.5.3-2.1l.5-5c0-.4,0-1,0-2,.6,0,1.1,0,2.1,0h4.9c1.4,0,1.9,0,2.8-.2v2.5c-.9-.1-1.7-.2-2.8-.2h-4.7l-.3,3.5c0,.2,0,.4-.1.8,1-.8,2-1.2,3.4-1.2s2.9.5,3.9,1.5c1,1,1.4,2.2,1.4,3.8,0,3.5-2.3,5.7-6,5.7s-3.5-.6-4.6-1.7c-.5-.6-.8-1.1-1.3-2.2l2.8-.6Z"/>
      <path d="M74.9,60.6c0,1.7-.4,2.4-2.1,3l-.7-1.1c1.2-.3,1.5-.7,1.5-1.9h-1.7v-2.9h2.9v2.9Z"/>
      <path d="M79,59.3c-.6-.6-1.1-1.3-1.3-2-.5-1.4-.8-3-.8-4.6s.5-4.3,1.2-5.5c1.1-1.8,2.9-2.8,5.1-2.8s3.2.6,4.2,1.6c.6.6,1.1,1.3,1.3,2,.5,1.4.8,3,.8,4.6,0,2.5-.5,4.6-1.5,5.9-1.1,1.6-2.8,2.4-4.9,2.4s-3.1-.6-4.2-1.6ZM85.4,57.8c.9-.9,1.4-2.8,1.4-5.1s-.5-4.1-1.4-5.1c-.5-.5-1.3-.8-2.2-.8s-1.7.3-2.2,1c-.9,1-1.3,2.7-1.3,4.9s.4,3.8,1,4.8c.6.9,1.5,1.3,2.6,1.3s1.7-.3,2.2-.8Z"/>
      <path d="M93.3,59.3c-.6-.6-1.1-1.3-1.3-2-.5-1.4-.8-3-.8-4.6s.5-4.3,1.2-5.5c1.1-1.8,2.9-2.8,5.1-2.8s3.2.6,4.2,1.6c.6.6,1.1,1.3,1.3,2,.5,1.4.8,3,.8,4.6,0,2.5-.5,4.6-1.5,5.9-1.1,1.6-2.8,2.4-4.9,2.4s-3.1-.6-4.2-1.6ZM99.7,57.8c.9-.9,1.4-2.8,1.4-5.1s-.5-4.1-1.4-5.1c-.5-.5-1.3-.8-2.2-.8s-1.7.3-2.2,1c-.9,1-1.3,2.7-1.3,4.9s.4,3.8,1,4.8c.6.9,1.5,1.3,2.6,1.3s1.7-.3,2.2-.8Z"/>
      <path d="M107.5,59.3c-.6-.6-1.1-1.3-1.3-2-.5-1.4-.8-3-.8-4.6s.5-4.3,1.2-5.5c1.1-1.8,2.9-2.8,5.1-2.8s3.2.6,4.2,1.6c.6.6,1.1,1.3,1.3,2,.5,1.4.8,3,.8,4.6,0,2.5-.5,4.6-1.5,5.9-1.1,1.6-2.8,2.4-4.9,2.4s-3.1-.6-4.2-1.6ZM113.9,57.8c.9-.9,1.4-2.8,1.4-5.1s-.5-4.1-1.4-5.1c-.5-.5-1.3-.8-2.2-.8s-1.7.3-2.2,1c-.9,1-1.3,2.7-1.3,4.9s.4,3.8,1,4.8c.6.9,1.5,1.3,2.6,1.3s1.7-.3,2.2-.8Z"/>
    </g>
    <g>
      <path d="M201.2,787.8c-1.6,0-1.9,0-2.6,0,.1-1.1.3-1.8.5-2.6.5-1.5,1.4-2.7,2.7-3.9.7-.6,1.3-1.1,3.3-2.4,1.8-1.3,2.4-1.9,2.4-2.9s-1.1-2.2-2.8-2.2-2,.4-2.5,1.2c-.3.5-.5.9-.6,1.8l-2.9-.3c.3-1.5.6-2.3,1.4-3.2,1-1.2,2.6-1.8,4.6-1.8,3.5,0,5.7,1.7,5.7,4.4s-.4,2.3-1.4,3.2c-.6.5-.8.7-3.4,2.5-.9.6-1.9,1.5-2.4,2-.6.6-.8,1-1.1,1.8h5.6c1.3,0,2.3,0,2.9-.2v2.6c-.9,0-1.7-.1-3-.1h-6.4Z"/>
      <path d="M214.7,786.5c-.6-.6-1.1-1.3-1.3-2-.5-1.4-.8-3-.8-4.6s.5-4.3,1.2-5.5c1.1-1.8,2.9-2.8,5.1-2.8s3.2.6,4.2,1.6c.6.6,1.1,1.3,1.3,2,.5,1.4.8,3,.8,4.6,0,2.5-.5,4.6-1.5,5.9-1.1,1.6-2.8,2.4-4.9,2.4s-3.1-.6-4.2-1.6ZM221.1,784.9c.9-.9,1.4-2.8,1.4-5.1s-.5-4.1-1.4-5.1c-.5-.5-1.3-.8-2.2-.8s-1.7.3-2.2,1c-.9,1-1.3,2.7-1.3,4.9s.4,3.8,1,4.8c.6.9,1.5,1.3,2.6,1.3s1.7-.3,2.2-.8Z"/>
      <path d="M232,787.8c.1-.8.2-1.6.2-2.6v-11h-1c-.7,0-1.3,0-2.1.1v-2.5c.6.1,1.1.1,2,.1h1.8c1,0,1.3,0,2,0-.1,1.2-.2,2.1-.2,3.3v10.1c0,1.1,0,1.8.2,2.6h-3Z"/>
      <path d="M243.9,787.8c-1.6,0-1.9,0-2.6,0,.1-1.1.3-1.8.5-2.6.5-1.5,1.4-2.7,2.7-3.9.7-.6,1.3-1.1,3.3-2.4,1.8-1.3,2.4-1.9,2.4-2.9s-1.1-2.2-2.8-2.2-2,.4-2.5,1.2c-.3.5-.5.9-.6,1.8l-2.9-.3c.3-1.5.6-2.3,1.4-3.2,1-1.2,2.6-1.8,4.6-1.8,3.5,0,5.7,1.7,5.7,4.4s-.4,2.3-1.4,3.2c-.6.5-.8.7-3.4,2.5-.9.6-1.9,1.5-2.4,2-.6.6-.8,1-1.1,1.8h5.6c1.3,0,2.3,0,2.9-.2v2.6c-.9,0-1.7-.1-3-.1h-6.4Z"/>
      <path d="M263.7,778.5c0-.4,0-.7,0-1.2.4,0,.9,0,1.4,0h4.4v-2.6h-4.2c-1,1.6-2,2.8-3.3,3.9-.6-.9-.8-1.1-1.5-1.8,2-1.7,3.1-3.1,3.9-5,.3-.6.4-1.1.5-1.5l2.4.5c-.1.2-.2.3-.3.6,0,0-.2.5-.6,1.3h9.4c.9,0,1.4,0,2-.1v2.2c-.6,0-1.1-.1-2-.1h-4.1v2.6h3.2c.9,0,1.5,0,2.1,0v2.1c-.6,0-1.1,0-2,0h-3.3v3.2h4.6c.9,0,1.6,0,2.2-.1v2.3c-.6,0-1.3-.1-2.2-.1h-4.6v2.5c0,1,0,1.6.1,2.1h-2.4c0-.6.1-1.1.1-2.2v-2.5h-6.7c-.9,0-1.5,0-2.2.1v-2.3c.6,0,1.3.1,2.2.1h1v-4.1ZM269.4,782.6v-3.2h-3.6v3.2h3.6Z"/>
    </g>
    <g>
      <path d="M383.8,787.8c-1.6,0-1.9,0-2.6,0,.1-1.1.3-1.8.5-2.6.5-1.5,1.4-2.7,2.7-3.9.7-.6,1.3-1.1,3.3-2.4,1.8-1.3,2.4-1.9,2.4-2.9s-1.1-2.2-2.8-2.2-2,.4-2.5,1.2c-.3.5-.5.9-.6,1.8l-2.9-.3c.3-1.5.6-2.3,1.4-3.2,1-1.2,2.6-1.8,4.6-1.8,3.5,0,5.7,1.7,5.7,4.4s-.4,2.3-1.4,3.2c-.6.5-.8.7-3.4,2.5-.9.6-1.9,1.5-2.4,2-.6.6-.8,1-1.1,1.8h5.6c1.3,0,2.3,0,2.9-.2v2.6c-.9,0-1.7-.1-3-.1h-6.4Z"/>
      <path d="M397.3,786.5c-.6-.6-1.1-1.3-1.3-2-.5-1.4-.8-3-.8-4.6s.5-4.3,1.2-5.5c1.1-1.8,2.9-2.8,5.1-2.8s3.2.6,4.2,1.6c.6.6,1.1,1.3,1.3,2,.5,1.4.8,3,.8,4.6,0,2.5-.5,4.6-1.5,5.9-1.1,1.6-2.8,2.4-4.9,2.4s-3.1-.6-4.2-1.6ZM403.7,784.9c.9-.9,1.4-2.8,1.4-5.1s-.5-4.1-1.4-5.1c-.5-.5-1.3-.8-2.2-.8s-1.7.3-2.2,1c-.9,1-1.3,2.7-1.3,4.9s.4,3.8,1,4.8c.6.9,1.5,1.3,2.6,1.3s1.7-.3,2.2-.8Z"/>
      <path d="M414.6,787.8c.1-.8.2-1.6.2-2.6v-11h-1c-.7,0-1.3,0-2.1.1v-2.5c.6.1,1.1.1,2,.1h1.8c1,0,1.3,0,2,0-.1,1.2-.2,2.1-.2,3.3v10.1c0,1.1,0,1.8.2,2.6h-3Z"/>
      <path d="M436.6,784.2c-.7-.1-1.2-.1-2-.1h-.7v1.4c0,1,0,1.5.2,2.3h-2.8c.1-.7.2-1.3.2-2.3v-1.4h-5.5c-1.2,0-1.8,0-2.5,0v-2.5c.7-.7.9-1,1.6-1.8l4.7-5.8c.9-1.1,1.2-1.5,1.7-2.2h2.7c-.1,1.2-.1,1.9-.1,3.4v6.6h.7c.8,0,1.3,0,2-.1v2.6ZM431.4,777.7c0-.9,0-1.6,0-2.4-.4.6-.6.9-1.4,1.8l-3.8,4.8h5.1v-4.1Z"/>
      <path d="M446.3,778.5c0-.4,0-.7,0-1.2.4,0,.9,0,1.4,0h4.4v-2.6h-4.2c-1,1.6-2,2.8-3.3,3.9-.6-.9-.8-1.1-1.5-1.8,2-1.7,3.1-3.1,3.9-5,.3-.6.4-1.1.5-1.5l2.4.5c-.1.2-.2.3-.3.6,0,0-.2.5-.6,1.3h9.4c.9,0,1.4,0,2-.1v2.2c-.6,0-1.1-.1-2-.1h-4.1v2.6h3.2c.9,0,1.5,0,2.1,0v2.1c-.6,0-1.1,0-2,0h-3.3v3.2h4.6c.9,0,1.6,0,2.2-.1v2.3c-.6,0-1.3-.1-2.2-.1h-4.6v2.5c0,1,0,1.6.1,2.1h-2.4c0-.6.1-1.1.1-2.2v-2.5h-6.7c-.9,0-1.5,0-2.2.1v-2.3c.6,0,1.3.1,2.2.1h1v-4.1ZM452,782.6v-3.2h-3.6v3.2h3.6Z"/>
    </g>
    <g>
      <path d="M566.4,787.8c-1.6,0-1.9,0-2.6,0,.1-1.1.3-1.8.5-2.6.5-1.5,1.4-2.7,2.7-3.9.7-.6,1.3-1.1,3.3-2.4,1.8-1.3,2.4-1.9,2.4-2.9s-1.1-2.2-2.8-2.2-2,.4-2.5,1.2c-.3.5-.5.9-.6,1.8l-2.9-.3c.3-1.5.6-2.3,1.4-3.2,1-1.2,2.6-1.8,4.6-1.8,3.5,0,5.7,1.7,5.7,4.4s-.4,2.3-1.4,3.2c-.6.5-.8.7-3.4,2.5-.9.6-1.9,1.5-2.4,2-.6.6-.8,1-1.1,1.8h5.6c1.3,0,2.3,0,2.9-.2v2.6c-.9,0-1.7-.1-3-.1h-6.4Z"/>
      <path d="M579.9,786.5c-.6-.6-1.1-1.3-1.3-2-.5-1.4-.8-3-.8-4.6s.5-4.3,1.2-5.5c1.1-1.8,2.9-2.8,5.1-2.8s3.2.6,4.2,1.6c.6.6,1.1,1.3,1.3,2,.5,1.4.8,3,.8,4.6,0,2.5-.5,4.6-1.5,5.9-1.1,1.6-2.8,2.4-4.9,2.4s-3.1-.6-4.2-1.6ZM586.3,784.9c.9-.9,1.4-2.8,1.4-5.1s-.5-4.1-1.4-5.1c-.5-.5-1.3-.8-2.2-.8s-1.7.3-2.2,1c-.9,1-1.3,2.7-1.3,4.9s.4,3.8,1,4.8c.6.9,1.5,1.3,2.6,1.3s1.7-.3,2.2-.8Z"/>
      <path d="M597.2,787.8c.1-.8.2-1.6.2-2.6v-11h-1c-.7,0-1.3,0-2.1.1v-2.5c.6.1,1.1.1,2,.1h1.8c1,0,1.3,0,2,0-.1,1.2-.2,2.1-.2,3.3v10.1c0,1.1,0,1.8.2,2.6h-3Z"/>
      <path d="M615.7,775.7c-.5-1.5-1.3-2-2.7-2s-2.5.7-3.1,2.1c-.5,1-.7,2-.8,3.5,1.1-1.5,2.3-2,4.3-2s3.8.9,4.6,2.4c.5.8.7,1.8.7,3,0,3.2-2.4,5.4-5.8,5.4s-3.1-.5-4.1-1.3c-1.5-1.3-2.3-3.7-2.3-6.7s.6-4.8,1.6-6.2c1.2-1.6,2.8-2.4,4.9-2.4s3.1.5,4.1,1.5c.5.5.8,1,1.3,2l-2.7.6ZM609.5,782.7c0,1.8,1.4,3.2,3.4,3.2s2.2-.5,2.7-1.4c.3-.5.5-1.1.5-1.8,0-2-1.2-3.1-3.2-3.1s-3.4,1.4-3.4,3.2Z"/>
      <path d="M628.9,778.5c0-.4,0-.7,0-1.2.4,0,.9,0,1.4,0h4.4v-2.6h-4.2c-1,1.6-2,2.8-3.3,3.9-.6-.9-.8-1.1-1.5-1.8,2-1.7,3.1-3.1,3.9-5,.3-.6.4-1.1.5-1.5l2.4.5c-.1.2-.2.3-.3.6,0,0-.2.5-.6,1.3h9.4c.9,0,1.4,0,2-.1v2.2c-.6,0-1.1-.1-2-.1h-4.1v2.6h3.2c.9,0,1.5,0,2.1,0v2.1c-.6,0-1.1,0-2,0h-3.3v3.2h4.6c.9,0,1.6,0,2.2-.1v2.3c-.6,0-1.3-.1-2.2-.1h-4.6v2.5c0,1,0,1.6.1,2.1h-2.4c0-.6.1-1.1.1-2.2v-2.5h-6.7c-.9,0-1.5,0-2.2.1v-2.3c.6,0,1.3.1,2.2.1h1v-4.1ZM634.6,782.6v-3.2h-3.6v3.2h3.6Z"/>
    </g>
    <g>
      <path d="M749,787.8c-1.6,0-1.9,0-2.6,0,.1-1.1.3-1.8.5-2.6.5-1.5,1.4-2.7,2.7-3.9.7-.6,1.3-1.1,3.3-2.4,1.8-1.3,2.4-1.9,2.4-2.9s-1.1-2.2-2.8-2.2-2,.4-2.5,1.2c-.3.5-.5.9-.6,1.8l-2.9-.3c.3-1.5.6-2.3,1.4-3.2,1-1.2,2.6-1.8,4.6-1.8,3.5,0,5.7,1.7,5.7,4.4s-.4,2.3-1.4,3.2c-.6.5-.8.7-3.4,2.5-.9.6-1.9,1.5-2.4,2-.6.6-.8,1-1.1,1.8h5.6c1.3,0,2.3,0,2.9-.2v2.6c-.9,0-1.7-.1-3-.1h-6.4Z"/>
      <path d="M762.5,786.5c-.6-.6-1.1-1.3-1.3-2-.5-1.4-.8-3-.8-4.6s.5-4.3,1.2-5.5c1.1-1.8,2.9-2.8,5.1-2.8s3.2.6,4.2,1.6c.6.6,1.1,1.3,1.3,2,.5,1.4.8,3,.8,4.6,0,2.5-.5,4.6-1.5,5.9-1.1,1.6-2.8,2.4-4.9,2.4s-3.1-.6-4.2-1.6ZM768.9,784.9c.9-.9,1.4-2.8,1.4-5.1s-.5-4.1-1.4-5.1c-.5-.5-1.3-.8-2.2-.8s-1.7.3-2.2,1c-.9,1-1.3,2.7-1.3,4.9s.4,3.8,1,4.8c.6.9,1.5,1.3,2.6,1.3s1.7-.3,2.2-.8Z"/>
      <path d="M779.8,787.8c.1-.8.2-1.6.2-2.6v-11h-1c-.7,0-1.3,0-2.1.1v-2.5c.6.1,1.1.1,2,.1h1.8c1,0,1.3,0,2,0-.1,1.2-.2,2.1-.2,3.3v10.1c0,1.1,0,1.8.2,2.6h-3Z"/>
      <path d="M790.6,778.3c-.6-.6-1-1.6-1-2.6,0-2.6,2.2-4.2,5.6-4.2s4.2.8,5.1,2.2c.3.6.5,1.3.5,2,0,1.9-1.1,3.2-2.9,3.7.9.1,1.5.4,2.2.9.9.8,1.4,1.8,1.4,3.1,0,3-2.2,4.6-6.3,4.6s-3.9-.5-5.1-1.6c-.7-.7-1.2-1.8-1.2-3s.5-2.5,1.6-3.3c.7-.5,1.2-.7,2-.8-.8-.2-1.4-.5-1.9-1.1ZM798.7,783.3c0-1.7-1.3-2.7-3.5-2.7s-3.5,1-3.5,2.7,1.3,2.6,3.4,2.6,3.5-.9,3.5-2.6ZM792.3,776c0,1.5,1.1,2.4,2.9,2.4s2.9-.9,2.9-2.4-1.1-2.3-2.9-2.3-2.9.9-2.9,2.3Z"/>
      <path d="M811.5,778.5c0-.4,0-.7,0-1.2.4,0,.9,0,1.4,0h4.4v-2.6h-4.2c-1,1.6-2,2.8-3.3,3.9-.6-.9-.8-1.1-1.5-1.8,2-1.7,3.1-3.1,3.9-5,.3-.6.4-1.1.5-1.5l2.4.5c-.1.2-.2.3-.3.6,0,0-.2.5-.6,1.3h9.4c.9,0,1.4,0,2-.1v2.2c-.6,0-1.1-.1-2-.1h-4.1v2.6h3.2c.9,0,1.5,0,2.1,0v2.1c-.6,0-1.1,0-2,0h-3.3v3.2h4.6c.9,0,1.6,0,2.2-.1v2.3c-.6,0-1.3-.1-2.2-.1h-4.6v2.5c0,1,0,1.6.1,2.1h-2.4c0-.6.1-1.1.1-2.2v-2.5h-6.7c-.9,0-1.5,0-2.2.1v-2.3c.6,0,1.3.1,2.2.1h1v-4.1ZM817.2,782.6v-3.2h-3.6v3.2h3.6Z"/>
    </g>
    <g>
      <path d="M837,838.4q-.6,0-1.8,0c-.1-.8-.3-1.3-.5-1.8-1.6.9-3.2,1.5-5.9,2.2-.6-.9-.8-1.2-1.6-2.1,3.9-.7,6.4-1.5,8.1-2.8h-4.3c-1.2,0-2.1,0-2.9.1v-2.4c.7,0,1.8.1,3.1.1h5.2c-.8-.5-1-.6-2.8-1.6l1.2-1.1h-2c-1.3,0-1.8,0-2.6.1v-2.4c.8,0,1.7.1,3,.1h9.5c1.4,0,2,0,2.5,0l1.4,1.5q-.2,0-.3.2s-.3.2-.6.5c-1.1.8-2.9,1.8-4.7,2.6h4.3c1,0,1.5,0,2.2,0l1.5,1.6q-.3.3-.6.6c-1.4,1.5-2.9,2.6-5,3.9-.7-.9-1-1.1-1.9-1.8,1.7-.8,2.2-1.1,3.4-2.1h-4v2.8c0,1-.3,1.5-1.1,1.6v1.6h6.6c1.3,0,2.2,0,3-.1v2.6c-.7,0-1.6-.1-2.9-.1h-4.7c2,1.7,4.6,2.8,8.3,3.6-.6.8-.9,1.4-1.4,2.5-3.9-1.2-6.6-2.8-8.8-5.2v.8c0,.3,0,.9,0,1.1v1.7c0,.9,0,1.4.1,1.9h-2.9c0-.6.1-1.2.1-1.9v-1.6c0-.4,0-1,0-1.9-2.2,2.3-4.5,3.7-8.4,5.2-.4-.9-.7-1.4-1.5-2.3,3.3-.9,5.9-2.2,7.9-3.8h-4.4c-1.3,0-2.2,0-2.9.1v-2.6c.7,0,1.4.1,2.4.1h6.9v-1.4ZM838.1,833.9c-.8.9-1.7,1.6-3,2.4q.2,0,.8,0c.4,0,1.4,0,1.8,0s.5-.1.5-.5v-2.2h0ZM835.7,829.1c1.3.7,1.7,1,2.9,1.7,1.1-.5,1.6-.8,3.2-1.7h-6Z"/>
      <path d="M851.5,835.6c.6,0,1,.1,1.9.1h1.8c.7,0,1.3,0,1.8-.1,0,.7-.1,1.3-.1,2.6v4.9c.5.9,1,1.3,1.7,1.6,1.3.6,2.9.7,6.3.7s6.3-.2,8.9-.5c-.5,1-.6,1.6-.8,2.8-4.3.1-6.4.2-8.2.2-3.4,0-5.3-.2-6.6-.7-1.1-.4-1.6-.9-2.5-1.9-.7.7-1.7,1.6-2.7,2.3-.3.2-.4.3-.7.6l-1.2-2.7c.9-.3,1.9-1,3.4-2.3v-5h-1.3c-.7,0-1,0-1.6.1v-2.6ZM853.4,826.9c1.8,1.6,2.9,2.8,4.1,4.3l-2,1.8c-1.4-1.9-2.4-3-4.1-4.4l1.9-1.7ZM861.6,829c-.3-.7-.8-1.3-1.3-2l2.3-.7c.7.9,1,1.5,1.6,2.7h2.1c.6-.8,1.1-1.7,1.5-2.7l2.6.6c-.4.7-1,1.5-1.3,2.1h1.5c1.1,0,1.7,0,2.4-.1v2.4c-.7,0-1.5,0-2.4,0h-4.1c-.3.6-.4.8-.6,1.2h3.5c1.1,0,1.7,0,2.2,0,0,.6,0,1.3,0,2.3v7.1c0,1,0,1.6.1,2.3-.8,0-1.2,0-1.8,0h-8.4c-.7,0-1.3,0-2.2,0,0-.6,0-1.5,0-2.3v-7.2c0-.8,0-1.7,0-2.2.6,0,1.2,0,2.3,0h1.8c.3-.5.4-.7.6-1.2h-3.5c-1.1,0-1.8,0-2.4,0v-2.4c.6,0,1.3.1,2.5.1h1.2ZM861.6,841.9h7.4v-1.3h-7.4v1.3ZM861.7,835.8h7.4v-1.3h-7.4v1.3ZM861.7,838.8h7.4v-1.3h-7.4v1.3Z"/>
      <path d="M897.2,830.9c-.5,0-.8,0-1.7,0-.7,2.2-1.1,2.9-2.2,4.2,1.1.7,2.2,1.2,4.1,1.7-.6.8-.8,1.3-1.2,2.4-1.9-.7-3.2-1.4-4.6-2.4-1.4,1.2-2.6,1.8-4.5,2.5-.3-.7-.6-1.3-1.1-1.8-.4.5-.5.7-.8,1.3-1.4-.8-2.4-1.6-3-2.5v.3q0,.2,0,.9v.6c0,.4,0,.7,0,1.1h-2.4c0-.4,0-.5,0-1.1v-.6c0-.3,0-.6,0-1.1-.9,1.2-2.1,2.2-3.9,3.2-.5-.8-.7-1.2-1.3-1.8,1.6-.6,2.7-1.2,3.7-2.3h-.7c-1,0-1.3,0-1.8,0,0-.5,0-1,0-1.6v-1.7c0-.7,0-1.1,0-1.5.5,0,.8,0,1.9,0h2v-.8h-2.6c-.9,0-1.6,0-2.1.1v-2.2c.6,0,1.2.1,2.1.1h2.6c0-.6,0-.9-.1-1.2h2.4c0,.4,0,.7,0,1.2h2.7c.9,0,1.5,0,2.1-.1v2.2c-.2,0-.9,0-2,0h-2.8v.8h2.1c1.1,0,1.4,0,1.9,0,0,.4,0,.7,0,1.5,1.6-1.6,2.7-3.6,3.1-5.6l2.5.4c-.4,1-.5,1.3-.8,1.9h3.8c.9,0,1.6,0,2.4-.1v2.4ZM885.2,841.4h-6c-1.2,0-1.8,0-2.4,0v-2.3c.7,0,1.2.1,2.4.1h14.5c1.3,0,1.8,0,2.5-.1v2.3c-.7,0-1.3,0-2.5,0h-5.9v1.2h5c1.1,0,1.6,0,2.2-.1v2.3c-.6,0-1.2-.1-2.2-.1h-5v1.3h6.9c1.2,0,2,0,2.7-.1v2.4c-.9,0-1.7-.1-2.7-.1h-16.4c-1,0-1.8,0-2.7.1v-2.4c.6,0,1.6.1,2.7.1h1.4v-1.9c0-.7,0-1.1-.1-1.6h2.7c0,.5,0,.9,0,1.6v1.9h3v-4.5ZM878.4,832.2v1.3h1.9v-1.3h-1.9ZM882.4,833.5h1.9v-1.3h-1.9v1.3ZM886.5,836.9c1.6-.5,2.6-1,3.7-1.8-.7-.8-1.1-1.4-1.6-2.4-.6.7-.7.9-1.3,1.4-.4-.5-.5-.7-.9-1.1v.6c0,.7,0,1.1,0,1.6-.4,0-.7,0-1.8,0h-.9c.9.7,1.6,1.2,3,1.6h-.1ZM889.8,830.9c.6,1.2,1,1.8,1.9,2.8.7-.9,1-1.5,1.4-2.8h-3.3Z"/>
      <path d="M904.3,845.4c0,1.2,0,2.2.1,3h-2.8c0-.8.1-1.8.1-3v-4c0-.9,0-1.2,0-2.5-.6.8-1,1.2-1.8,1.8-.3-1.1-.6-1.8-1.1-2.6,1.6-1.2,2.9-2.6,4-4.3.5-.8.9-1.5,1.1-1.9l2.2,1.5q-.2.2-.4.6s0,.1-.2.3q0,0-.3.4c-.3.4-.5.8-1.1,1.6v9.1ZM906.3,827.7c-.1.2-.2.2-.4.5-2,2.4-3.2,3.6-5.3,5-.4-.9-.7-1.4-1.5-2.3,1.2-.6,1.7-1,2.5-1.8,1.2-1.1,2-2.1,2.4-2.9l2.3,1.5ZM919.7,841.2c-.4.4-.5.5-.8.8-1,1.1-1.8,1.8-3,2.7,1.9.7,3.8,1,6,1.1-.5.9-.8,1.6-1,2.6-3.3-.5-5.3-1.1-7.4-2.2-2.4,1.2-4.5,1.8-7.6,2.3-.2-.8-.5-1.5-1.1-2.3,2.6-.3,4.3-.6,6.3-1.4-.8-.6-1.2-1-2.1-2-.9.7-1.4,1.1-2.8,1.8-.4-.8-.8-1.3-1.5-2,2.4-1,3.7-2,5.1-3.5-1.2,0-1.6,0-2.1,0,0-.5,0-1.2,0-2.4v-3.8c-.2.3-.3.4-.7.7-.7-.9-1.2-1.3-2-1.9,1.7-1.5,3.3-3.9,3.8-5.8l2.8.7c-.2.3-.3.5-.7,1.3h7.2c1.4,0,2.3,0,2.9-.1v2.6c-.6,0-1.6-.1-2.9-.1h-8.5c-.2.4-.3.5-.6,1h8.1c1.3,0,1.7,0,2.4,0,0,.5,0,1,0,2.4v3.1c0,1.3,0,1.8,0,2.4-.6,0-1.1,0-2.1,0h-4.9c-.3.4-.4.6-.7.9h4.6c.9,0,1.4,0,1.8,0l1.4,1.3ZM910.3,834.2h6.7v-1h-6.7v1ZM910.3,837.1h6.7v-1.1h-6.7v1.1ZM911.1,841.9c.6.6,1.4,1.1,2.4,1.8.8-.5,1.3-.9,2.3-1.8h-4.7Z"/>
      <path d="M926.5,829.5c.6-1.3.9-2,1.1-3.2l2.6.3c-.3,1.1-.7,2-1.2,2.9h1.5c.6,0,1.1,0,1.6,0,0,.5,0,1,0,1.5v4.3c0,.9,0,1.2,0,1.7-.5,0-.8,0-1.5,0h-4.1v2.1h4.1c.8,0,1.2,0,1.7,0,0,.6,0,1,0,1.8v5.1c0,.9,0,1.4,0,2h-2.5v-1.1h-3.3v1.7h-2.6c.1-.8.2-1.6.2-2.5v-14.5c0-.6,0-1.6-.1-1.9.5,0,1,0,1.7,0h.8ZM926.6,834.6h3.1v-2.8h-3.1v2.8ZM926.6,844.4h3.3v-3.1h-3.3v3.1ZM935,829.7c-1,0-1.6,0-2.4.1v-2.6c.7,0,1.4.1,2.5.1h7.8c1.1,0,1.7,0,2.5-.1v2.6c-.8,0-1.4-.1-2.4-.1h-2.9v2.5h2.7c.9,0,1.4,0,1.9,0,0,.5,0,.9,0,1.9v9.8c0,.8-.2,1.4-.6,1.8-.4.3-.8.4-1.8.4s-.6,0-1.2,0c0-1.2-.2-1.7-.5-2.4.9.1,1,.2,1.2.2s.4,0,.4-.5v-8.7h-2.2v11.7c0,1,0,1.7.1,2.4h-2.8c.1-.7.2-1.5.2-2.4v-11.7h-1.8v9.4c0,1.2,0,1.8,0,2.3h-2.6c0-.6.1-1.1.1-2.6v-9.5c0-1,0-1.4,0-2,.6,0,1,0,2,0h2.3v-2.5h-2.8Z"/>
      <path d="M957.7,841c-1.4,3.1-2.9,4.5-4.9,4.5s-4.7-2.8-4.7-6.6.9-5.1,2.6-7c2-2.2,4.8-3.4,8.3-3.4,5.8,0,9.5,3.5,9.5,8.9s-2.2,7.5-5.8,9c-1.2.5-2.1.7-3.8,1-.4-1.3-.7-1.8-1.5-2.8,2.2-.3,3.6-.7,4.8-1.3,2.1-1.2,3.3-3.4,3.3-6s-1-4.2-3-5.3c-.7-.4-1.4-.6-2.4-.7-.5,3.8-1.3,7.1-2.5,9.8ZM954.2,832.4c-2,1.4-3.3,3.9-3.3,6.5s.8,3.5,1.9,3.5,1.6-1,2.5-3.1c.9-2.2,1.7-5.4,2-8.1-1.2.1-2.1.5-3.1,1.2Z"/>
      <path d="M983.8,838.5v6.3c0,.5,0,.7.3.8.3.1,1,.2,2.1.2,3.4,0,3.9,0,4.3-.3.3-.2.4-.9.5-2.6,1.1.5,1.4.6,2.4.7-.2,2.2-.5,3.3-1.2,3.9-.7.6-1.6.7-5.4.7s-5.3-.4-5.3-2.3v-6.7c-.3,0-.6.2-.8.3l-.6-2.4h.3c.6-.1.6-.2,1.1-.3v-1.2c0-.4,0-.6,0-.9-.2.3-.3.4-.6.8-.6-.9-1.1-1.3-1.8-1.9.6-.6.7-.8,1.1-1.3-.6,0-.8,0-1.7,0h-2.6q0,2.2,0,2.6h2.3c.8,0,1.3,0,1.8,0,0,.2,0,1.1,0,1.2v1.1c0,1.5,0,4.6-.2,6-.2,2.6-.5,3.9-1,4.5-.4.4-1,.6-2.1.6s-.2,0-.9,0q-.3,0-.6,0c0-1.1-.2-1.7-.5-2.5.1,0,.3,0,.3,0,.6,0,1,.1,1.3.1.7,0,.8-.2,1-1.5.2-1.5.4-4.2.4-7.2h-1.9c-.2,2.9-.4,4.4-.8,5.9-.6,2.3-1.2,3.9-2.4,5.5-.6-1-1.1-1.6-1.8-2.2,1.3-2,1.9-3.7,2.3-6.8.4-2.7.4-3.4.4-7.4h-.3c-.8,0-1.5,0-2,.1v-2.6c.7.1,1.2.1,2.2.1h1.4v-1.2c0-.9,0-1.5-.1-2.1h2.8c0,.7-.1,1.1-.1,2.1v1.2h1c1,0,1.6,0,2.2-.1v1.8c1.1-1.7,2.1-3.9,2.4-5.3l2.7.5c-.1.2-.2.5-.4.9,0,.2-.2.6-.6,1.4h6.1c1.1,0,1.8,0,2.5-.1v2.6c-.6,0-1.6,0-2.4,0h-7.3c-.5.8-.8,1.3-1.3,2.1h1.8c0,.6-.1.9-.1,1.9v.5l1.9-.5v-1.3c0-.9,0-1.6,0-2h2.5c0,.5-.1,1-.1,1.9v.8l2.4-.7c.1,0,.4-.1.8-.3.2,0,.4-.1.6-.2.4,0,.5-.1.7-.2-.1,5.8-.2,7.3-.6,8.2-.3.7-.8.9-2.2.9s-.2,0-.9,0c0-.9-.2-1.5-.6-2.3.5,0,.8.1,1.2.1.5,0,.6-.1.7-1.2,0-.8,0-1.7,0-2.7l-2.2.6v4.3c0,1.1,0,1.4,0,2h-2.4c0-.6,0-1,0-2v-3.6l-1.9.6Z"/>
      <path d="M1005,829.2c0-1.2,0-1.8-.1-2.6h2.7c-.1.8-.1,1.4-.1,2.6v2h1.1c1.1,0,1.5,0,2.2-.1v1.9c.4,0,.6,0,1.2,0h3.6c1,0,1.4,0,2-.1v2.7c-.6,0-.9,0-2,0v10.3c0,1.3-.3,1.9-1.1,2.2-.4.1-1.3.2-2.5.2s-.7,0-1.9,0c0-1-.2-1.7-.6-2.5,1.1.1,1.9.2,2.8.2s.8-.1.8-.6v-9.8h-1.1c-.7,0-1.1,0-1.5,0v-1.9c-.4,0-.7,0-1.3,0h-1.7v12c0,1.4,0,2,.1,2.9h-2.7c.1-.9.1-1.6.1-2.9v-12h-2.1c-.7,0-1,0-1.5,0-.6,1.1-1.2,1.9-1.6,2.5v9.6c0,1.3,0,2,.1,2.7h-2.7c0-.8.1-1.5.1-2.8v-4.4c0-1,0-1,0-2.6-.4.6-1,1.2-1.6,1.6-.3-1.3-.5-1.8-.9-2.6,1.4-1,2.5-2.2,3.6-3.8.6-.8,1-1.6,1.2-2.2l1.7,1v-1.6c.7,0,1.1.1,2.2.1h1.5v-2ZM1001.6,827.6c0,.1-.5.6-1.2,1.6-1.1,1.4-2.3,2.5-4.2,3.9-.3-.9-.6-1.4-1.2-2.3,1.9-1.2,3.6-2.9,4.3-4.5l2.3,1.3ZM1004.1,835.4c-.3,5.4-.7,8.1-1.7,10.7-.7-.4-1.1-.7-2.2-1.2.6-1.4,1-2.5,1.2-4,.2-1.5.4-3.7.5-5.8l2.2.3ZM1009.5,830.8c-.7-1.4-.9-1.7-1.9-3l1.8-1.1c.8.9,1.2,1.4,1.8,2.4v-1.4c.5,0,1.1.1,1.9.1h2.2c.8,0,1.4,0,1.9-.1v2.7c-.6,0-1.1-.1-1.9-.1h-2.2c-.7,0-1.3,0-1.9.1v-.6l-1.7,1ZM1010,835c.7,2.7,1.3,5.3,1.8,8.4l-2.2.7c-.4-3.7-.9-6.3-1.6-8.7l2-.5Z"/>
      <path d="M1029.6,838c0,1.1,0,1.3,0,1.9-.2,0-1,0-2.4,0h-4c-.2,4-.7,6.1-2.1,8.5-.7-.9-1.2-1.3-2.1-1.9,1.5-2.5,1.9-5,1.9-11.5s0-2.4-.1-3.3c.8,0,1.4,0,2.5,0h3.9c1.1,0,1.7,0,2.4,0,0,.5,0,1.2,0,2.2v4.1ZM1019.9,827.4c.7,0,1.3.1,2.6.1h5.2c1.4,0,2,0,2.6-.1v2.7c-.6,0-1.2-.1-2.5-.1h-5.4c-1.1,0-1.8,0-2.4.1v-2.7ZM1027.1,837.6v-3.6h-3.7v1.7c0,.9,0,1.1,0,1.8h3.8ZM1033.7,836.3c-.1,2.9-.5,4.8-1.1,6.6-.5,1.4-1.2,2.7-2.1,3.9-.4.5-.7.9-1.5,1.8-.6-.9-1.2-1.4-2-2,1.8-1.7,2.8-3.2,3.4-5.3.5-1.8.8-4.5.8-8.9s0-3,0-3.8c3,0,7-.9,9-2l1.4,2.4c-.4,0-.6.1-1.1.3-2.5.8-4,1.1-6.6,1.5v3h5.4c1.1,0,1.6,0,2.3-.1v2.8c-.6,0-1.2-.1-2.1-.1h-.4v9.5c0,1.2,0,1.8.1,2.6h-2.8c0-.8.1-1.4.1-2.6v-9.5h-2.8Z"/>
    </g>
    <g>
      <path d="M931.6,787.8c-1.6,0-1.9,0-2.6,0,.1-1.1.3-1.8.5-2.6.5-1.5,1.4-2.7,2.7-3.9.7-.6,1.3-1.1,3.3-2.4,1.8-1.3,2.4-1.9,2.4-2.9s-1.1-2.2-2.8-2.2-2,.4-2.5,1.2c-.3.5-.5.9-.6,1.8l-2.9-.3c.3-1.5.6-2.3,1.4-3.2,1-1.2,2.6-1.8,4.6-1.8,3.5,0,5.7,1.7,5.7,4.4s-.4,2.3-1.4,3.2c-.6.5-.8.7-3.4,2.5-.9.6-1.9,1.5-2.4,2-.6.6-.8,1-1.1,1.8h5.6c1.3,0,2.3,0,2.9-.2v2.6c-.9,0-1.7-.1-3-.1h-6.4Z"/>
      <path d="M945.1,786.5c-.6-.6-1.1-1.3-1.3-2-.5-1.4-.8-3-.8-4.6s.5-4.3,1.2-5.5c1.1-1.8,2.9-2.8,5.1-2.8s3.2.6,4.2,1.6c.6.6,1.1,1.3,1.3,2,.5,1.4.8,3,.8,4.6,0,2.5-.5,4.6-1.5,5.9-1.1,1.6-2.8,2.4-4.9,2.4s-3.1-.6-4.2-1.6ZM951.5,784.9c.9-.9,1.4-2.8,1.4-5.1s-.5-4.1-1.4-5.1c-.5-.5-1.3-.8-2.2-.8s-1.7.3-2.2,1c-.9,1-1.3,2.7-1.3,4.9s.4,3.8,1,4.8c.6.9,1.5,1.3,2.6,1.3s1.7-.3,2.2-.8Z"/>
      <path d="M960.1,787.8c-1.6,0-1.9,0-2.6,0,.1-1.1.3-1.8.5-2.6.5-1.5,1.4-2.7,2.7-3.9.7-.6,1.3-1.1,3.3-2.4,1.8-1.3,2.4-1.9,2.4-2.9s-1.1-2.2-2.8-2.2-2,.4-2.5,1.2c-.3.5-.5.9-.6,1.8l-2.9-.3c.3-1.5.6-2.3,1.4-3.2,1-1.2,2.6-1.8,4.6-1.8,3.5,0,5.7,1.7,5.7,4.4s-.4,2.3-1.4,3.2c-.6.5-.8.7-3.4,2.5-.9.6-1.9,1.5-2.4,2-.6.6-.8,1-1.1,1.8h5.6c1.3,0,2.3,0,2.9-.2v2.6c-.9,0-1.7-.1-3-.1h-6.4Z"/>
      <path d="M973.6,786.5c-.6-.6-1.1-1.3-1.3-2-.5-1.4-.8-3-.8-4.6s.5-4.3,1.2-5.5c1.1-1.8,2.9-2.8,5.1-2.8s3.2.6,4.2,1.6c.6.6,1.1,1.3,1.3,2,.5,1.4.8,3,.8,4.6,0,2.5-.5,4.6-1.5,5.9-1.1,1.6-2.8,2.4-4.9,2.4s-3.1-.6-4.2-1.6ZM980,784.9c.9-.9,1.4-2.8,1.4-5.1s-.5-4.1-1.4-5.1c-.5-.5-1.3-.8-2.2-.8s-1.7.3-2.2,1c-.9,1-1.3,2.7-1.3,4.9s.4,3.8,1,4.8c.6.9,1.5,1.3,2.6,1.3s1.7-.3,2.2-.8Z"/>
      <path d="M994.1,778.5c0-.4,0-.7,0-1.2.4,0,.9,0,1.4,0h4.4v-2.6h-4.2c-1,1.6-2,2.8-3.3,3.9-.6-.9-.8-1.1-1.5-1.8,2-1.7,3.1-3.1,3.9-5,.3-.6.4-1.1.5-1.5l2.4.5c-.1.2-.2.3-.3.6,0,0-.2.5-.6,1.3h9.4c.9,0,1.4,0,2-.1v2.2c-.6,0-1.1-.1-2-.1h-4.1v2.6h3.2c.9,0,1.5,0,2.1,0v2.1c-.6,0-1.1,0-2,0h-3.3v3.2h4.6c.9,0,1.6,0,2.2-.1v2.3c-.6,0-1.3-.1-2.2-.1h-4.6v2.5c0,1,0,1.6.1,2.1h-2.4c0-.6.1-1.1.1-2.2v-2.5h-6.7c-.9,0-1.5,0-2.2.1v-2.3c.6,0,1.3.1,2.2.1h1v-4.1ZM999.8,782.6v-3.2h-3.6v3.2h3.6Z"/>
    </g>
    <g>
      <path d="M1114.2,787.8c-1.6,0-1.9,0-2.6,0,.1-1.1.3-1.8.5-2.6.5-1.5,1.4-2.7,2.7-3.9.7-.6,1.3-1.1,3.3-2.4,1.8-1.3,2.4-1.9,2.4-2.9s-1.1-2.2-2.8-2.2-2,.4-2.5,1.2c-.3.5-.5.9-.6,1.8l-2.9-.3c.3-1.5.6-2.3,1.4-3.2,1-1.2,2.6-1.8,4.6-1.8,3.5,0,5.7,1.7,5.7,4.4s-.4,2.3-1.4,3.2c-.6.5-.8.7-3.4,2.5-.9.6-1.9,1.5-2.4,2-.6.6-.8,1-1.1,1.8h5.6c1.3,0,2.3,0,2.9-.2v2.6c-.9,0-1.7-.1-3-.1h-6.4Z"/>
      <path d="M1127.7,786.5c-.6-.6-1.1-1.3-1.3-2-.5-1.4-.8-3-.8-4.6s.5-4.3,1.2-5.5c1.1-1.8,2.9-2.8,5.1-2.8s3.2.6,4.2,1.6c.6.6,1.1,1.3,1.3,2,.5,1.4.8,3,.8,4.6,0,2.5-.5,4.6-1.5,5.9-1.1,1.6-2.8,2.4-4.9,2.4s-3.1-.6-4.2-1.6ZM1134.1,784.9c.9-.9,1.4-2.8,1.4-5.1s-.5-4.1-1.4-5.1c-.5-.5-1.3-.8-2.2-.8s-1.7.3-2.2,1c-.9,1-1.3,2.7-1.3,4.9s.4,3.8,1,4.8c.6.9,1.5,1.3,2.6,1.3s1.7-.3,2.2-.8Z"/>
      <path d="M1142.7,787.8c-1.6,0-1.9,0-2.6,0,.1-1.1.3-1.8.5-2.6.5-1.5,1.4-2.7,2.7-3.9.7-.6,1.3-1.1,3.3-2.4,1.8-1.3,2.4-1.9,2.4-2.9s-1.1-2.2-2.8-2.2-2,.4-2.5,1.2c-.3.5-.5.9-.6,1.8l-2.9-.3c.3-1.5.6-2.3,1.4-3.2,1-1.2,2.6-1.8,4.6-1.8,3.5,0,5.7,1.7,5.7,4.4s-.4,2.3-1.4,3.2c-.6.5-.8.7-3.4,2.5-.9.6-1.9,1.5-2.4,2-.6.6-.8,1-1.1,1.8h5.6c1.3,0,2.3,0,2.9-.2v2.6c-.9,0-1.7-.1-3-.1h-6.4Z"/>
      <path d="M1156.9,787.8c-1.6,0-1.9,0-2.6,0,.1-1.1.3-1.8.5-2.6.5-1.5,1.4-2.7,2.7-3.9.7-.6,1.3-1.1,3.3-2.4,1.8-1.3,2.4-1.9,2.4-2.9s-1.1-2.2-2.8-2.2-2,.4-2.5,1.2c-.3.5-.5.9-.6,1.8l-2.9-.3c.3-1.5.6-2.3,1.4-3.2,1-1.2,2.6-1.8,4.6-1.8,3.5,0,5.7,1.7,5.7,4.4s-.4,2.3-1.4,3.2c-.6.5-.8.7-3.4,2.5-.9.6-1.9,1.5-2.4,2-.6.6-.8,1-1.1,1.8h5.6c1.3,0,2.3,0,2.9-.2v2.6c-.9,0-1.7-.1-3-.1h-6.4Z"/>
      <path d="M1176.7,778.5c0-.4,0-.7,0-1.2.4,0,.9,0,1.4,0h4.4v-2.6h-4.2c-1,1.6-2,2.8-3.3,3.9-.6-.9-.8-1.1-1.5-1.8,2-1.7,3.1-3.1,3.9-5,.3-.6.4-1.1.5-1.5l2.4.5c-.1.2-.2.3-.3.6,0,0-.2.5-.6,1.3h9.4c.9,0,1.4,0,2-.1v2.2c-.6,0-1.1-.1-2-.1h-4.1v2.6h3.2c.9,0,1.5,0,2.1,0v2.1c-.6,0-1.1,0-2,0h-3.3v3.2h4.6c.9,0,1.6,0,2.2-.1v2.3c-.6,0-1.3-.1-2.2-.1h-4.6v2.5c0,1,0,1.6.1,2.1h-2.4c0-.6.1-1.1.1-2.2v-2.5h-6.7c-.9,0-1.5,0-2.2.1v-2.3c.6,0,1.3.1,2.2.1h1v-4.1ZM1182.4,782.6v-3.2h-3.6v3.2h3.6Z"/>
    </g>
    <g>
      <path d="M354.2,847.5c0-.2,0-.4-.1-.9-.5-2.8-.6-5.1-.6-7.6s.1-4.3.5-6.4q.1-.7.6-3.4c.2-.8.3-1.5.3-1.8h0c0,0,3.2.2,3.2.2-1,2.1-1.9,7.9-1.9,12q0,.9,0,1.2v.4c0,.2,0,.2,0,.5h0q.1-.3.3-.7c0-.2.2-.4.3-.8q.2-.5.5-1.1c0,0,0-.1.3-.7l2,.9c-1.4,2.8-2.4,5.8-2.4,7.3s0,.2,0,.6l-2.9.2ZM359.6,831.8c1.1.3,2.4.4,4.3.4s1.4,0,2.2,0c0-1.4,0-2.6,0-3.6s0-.9,0-1.2h3c-.1.6-.2,1.8-.2,3.5v1.1c1.2-.1,2.3-.3,3.2-.6q.1,0,.5-.2h.2s0,2.7,0,2.7c-.2,0-.3,0-.7.1-.8.2-2.1.4-3.3.5v.5c0,1.3,0,1.4.2,5.4,1.7.8,2.3,1.2,3.8,2.2.3.2.4.3.7.4l-1.2,2.9c-.4-.5-1.1-1.1-1.8-1.5-.8-.5-1.4-.9-1.5-1v.3c0,.5,0,1-.2,1.3-.6,1.4-2.2,2.3-4.6,2.3s-5.1-1.5-5.1-3.9,2-4,4.9-4,1.5,0,2.1.3c0-.6,0-1.8-.2-5.1-1,0-1.5,0-2.2,0-.9,0-1.8,0-3-.1-.3,0-.6,0-.7,0-.2,0-.4,0-.4,0-.1,0-.2,0-.2,0s0,0-.1,0v-2.8ZM364.5,841.9c-1.5,0-2.5.6-2.5,1.6s.9,1.5,2.2,1.5,1.6-.3,1.9-.7c.2-.3.3-.6.3-1.3v-.6c-.8-.3-1.2-.4-2-.4Z"/>
      <path d="M383.5,827c-.3.8-.4,1.4-.9,4.6-.2,1-.3,1.8-.3,2.4h0q0-.1.1-.5c.2-.8.9-2,1.5-2.9,1.3-1.6,2.8-2.4,4.6-2.4s3.1.8,4.1,2.2c1.2,1.6,1.7,3.6,1.7,6.4,0,4.6-2.2,8.1-6.2,9.9-1.2.6-2.9,1-4.7,1.3-.5-1.4-.7-1.9-1.4-2.8,2.4-.3,3.8-.6,5.3-1.4,2.8-1.4,4.1-3.7,4.1-7.3s-1.2-5.4-3.2-5.4-1.8.4-2.6,1.3c-1.9,1.9-3,4.9-3,7.8v.5h-2.9c0,0,0-.2,0-.3v-.5c0-.7,0-2.5,0-3,0-1.9.1-4.6.3-6.3l.4-3c0-.4,0-.5,0-.8l3,.2Z"/>
      <path d="M403.1,829.5c.6-1.3.9-2,1.1-3.2l2.6.3c-.3,1.1-.7,2-1.2,2.9h1.5c.6,0,1.1,0,1.6,0,0,.5,0,1,0,1.5v4.3c0,.9,0,1.2,0,1.7-.5,0-.8,0-1.5,0h-4.1v2.1h4.1c.8,0,1.2,0,1.7,0,0,.6,0,1,0,1.8v5.1c0,.9,0,1.4,0,2h-2.5v-1.1h-3.3v1.7h-2.6c.1-.8.2-1.6.2-2.5v-14.4c0-.6,0-1.6-.1-1.9.5,0,1,0,1.7,0h.8ZM403.2,834.6h3.1v-2.8h-3.1v2.8ZM403.2,844.4h3.3v-3.1h-3.3v3.1ZM411.6,829.8c-1,0-1.6,0-2.4.1v-2.6c.7,0,1.4.1,2.5.1h7.8c1.1,0,1.7,0,2.5-.1v2.6c-.8,0-1.4-.1-2.4-.1h-2.9v2.5h2.7c.9,0,1.4,0,1.9,0,0,.5,0,.9,0,1.9v9.8c0,.8-.2,1.4-.6,1.8-.4.3-.8.4-1.8.4s-.6,0-1.2,0c0-1.2-.2-1.7-.5-2.4.9.1,1,.2,1.2.2s.4,0,.4-.5v-8.7h-2.2v11.7c0,1,0,1.7.1,2.4h-2.8c.1-.7.2-1.5.2-2.4v-11.7h-1.8v9.4c0,1.2,0,1.8,0,2.3h-2.6c0-.6.1-1.1.1-2.6v-9.5c0-1,0-1.4,0-2,.6,0,1,0,2,0h2.3v-2.5h-2.8Z"/>
      <path d="M444.6,834.2c-.1.3-.2.5-.5,1.2-1.2,2.9-2.4,4.9-4.3,7,2.1,1.6,3.7,2.4,6.5,3.3-.6.9-1,1.8-1.3,2.8-2.6-1-4.7-2.2-7.1-4.2-2.2,1.9-4.5,3.2-7.6,4.3-.5-1.1-.9-1.8-1.5-2.4,2.9-.8,5.3-2,7.2-3.6-2.2-2.2-3.6-4.5-4.7-7.2-.3,3.2-.8,5.2-1.8,7.4-1,2.2-2.2,3.8-4,5.6-.6-.9-1.2-1.5-1.9-2.1,1.7-1.5,2.6-2.6,3.5-4.4,1.5-2.9,2.2-6.9,2.2-12h-1.6c-1.1,0-1.8,0-2.6.1v-2.7c.7,0,1.7.1,3,.1h9.7c.9,0,1.9,0,2.9-.1q0,.4-.3,1.2c-.4,1.8-.6,2.7-1.3,4.7h2.4c1,0,1.6,0,2,0l1.2,1.2ZM431.9,830.2c.7,2.9,1.4,4.7,2.9,6.9.9,1.4,1.9,2.6,3.2,3.8,1.6-1.8,2.5-3.1,3.5-5.4h-3q0,.2-.4.9h-2.6c1.1-2.8,1.5-4,2-6.5h-5.6v.3Z"/>
      <path d="M449,828.8c.5,0,.6,0,1.2,0,2.8,0,5.8-.3,6.8-.8l1.5,2.6c-1.2.7-1.9,1.4-3,2.6-2,2.4-3.1,4.8-3.1,7.1s1.7,4.3,4.1,4.3,3.6-1.1,4.4-3c.6-1.5.9-3,.9-5.2s-.5-5.6-1.3-7.3l2.9-.8c1.1,3.5,3.8,7.2,6.4,8.9l-1.5,2.9c0,0-.2-.2-.2-.2,0,0-.2-.1-.4-.3-1.6-1.5-2.4-2.5-3.8-4.9.4,1.7.5,2.5.5,4.2,0,5.2-3.3,8.8-7.8,8.8s-3-.4-4.1-1.1c-1.8-1.2-3-3.5-3-6.1s.6-4,1.7-5.8c.6-1,1.5-2.2,2.4-3.1q0,0,.4-.4c0,0,0-.1.3-.3-.2,0-.3,0-.4,0h-.3q-1.4.3-4,.5c-.3,0-.3,0-.6,0v-2.8ZM465.5,827c1.1,1.1,1.7,2,2.5,3.5l-1.7.9c-.8-1.5-1.5-2.4-2.5-3.6l1.7-.8ZM469.2,829.9c-.7-1.3-1.5-2.4-2.4-3.5l1.6-.8c1.1,1.1,1.8,2,2.5,3.4l-1.7.9Z"/>
      <path d="M474.2,830.3c.7,0,1.2,0,2.3,0,1.8,0,3.1,0,4.9-.3q0-.2-.3-.6c-.6-1.4-.9-2.1-1-2.2l3-.4c0,.6.3,1.3,1,2.9,2-.3,4.8-.9,6.5-1.4l.2,2.5q-.2,0-.8.2c-1.6.4-4.3.9-5,1,.4.9.5,1.2.9,2,2.1-.4,3.2-.7,3.3-.7,1.4-.3,1.7-.4,2.3-.7l.2,2.6c-.5,0-1,.2-1.5.3-1,.2-1.8.4-2.4.5q-.6.1-.9.2c1.2,2.1,1.6,2.6,3.2,4.4l-2.1,1.5c-1.7-.7-3.2-1-5.5-1s-3.2.2-4,.7c-.7.4-1,.9-1,1.5s.4,1.1,1,1.4c.8.3,2,.5,3.4.5,2.5,0,5.9-.7,7.4-1.6l.4,3q-.5,0-1.6.4c-2,.6-4,.8-6.1.8s-4.5-.4-5.9-1.2c-1.2-.7-1.8-1.9-1.8-3.3s.7-2.5,2-3.3c1.2-.8,3.2-1.2,5.6-1.2s2.9.2,4.2.5c-.4-.4-.8-1-1.8-2.7-2.5.4-4.1.5-9.3.6-.4,0-.6,0-1,0v-2.6c.6,0,.7,0,2.4,0,2.5,0,4.5-.1,6.8-.5-.1-.3-.2-.4-.4-.9-.2-.5-.3-.6-.5-1.1-1.9.2-3.6.3-6.4.3-1,0-1.1,0-1.6,0v-2.5Z"/>
      <path d="M501.4,838.3c.8-2.2,3-3.9,5.8-4.4,0-1.6-.1-2.1-.3-2.9h2.7c0,0,0,.2,0,.2,0,.2,0,.4,0,.5s0,.4,0,.8c0,.2,0,.4,0,1.2,3.6.2,5.8,2.4,5.8,5.6s-1.2,4.3-3.2,5.2c-1,.5-2.1.7-3.3.7s-.4,0-.6,0c-.9,1.4-1.8,2.3-3.6,3.5-1-1-1.2-1.2-2-1.8,1.1-.5,1.9-1,2.8-1.9.1-.2.3-.3.3-.4t0,0c-1-.3-2.3-1.6-3-2.8.6-.8.8-1.2,1.2-2.2.3.7.7,1.2,1.3,1.9.4.4.7.6,1.3.9.4-1.2.5-2.4.5-4.5s0-1,0-1.7c-2.1.6-3.6,1.8-4.7,3.6-.6,1.2-1,2.2-1,3.3s0,.8.1,1.2h-2.5c0-.2,0-.3,0-.6,0-1.6-.1-2.6-.1-3.6,0-1.9.1-3.7.5-6.3,0-.7.1-.9.1-1.1h0v-.2l2.6.2c-.3.7-.8,3.4-1,5.8h0s0-.3,0-.3ZM509.5,842.7c2.1-.2,3.3-1.5,3.3-3.6s-.6-2.3-1.7-2.8c-.4-.2-.8-.3-1.5-.4,0,.7,0,.9,0,2.1,0,1.9-.2,3.2-.6,4.7q.2,0,.4,0Z"/>
      <path d="M522.2,834.7q.6,0,2.8-.4c3.4-.6,5.5-.8,7.5-.8s3.4.3,4.5,1c1.5.9,2.3,2.5,2.3,4.4,0,2.7-1.7,5.2-4.6,6.9-2,1.1-3.6,1.6-7.6,2.3-.2-1.3-.5-1.9-1.2-3,2.8-.1,5.4-.8,7.2-1.8,1.9-1.1,2.9-2.6,2.9-4.2s-1.3-2.7-3.8-2.7-7.5.8-9.5,1.7l-.7-3.2ZM525.9,827c2.7.9,6.2,1.4,10,1.4h.7l-.4,3c-4.4-.2-7.7-.6-11.2-1.5l.9-2.8Z"/>
      <path d="M547.1,829.5c.6-1.3.9-2,1.1-3.2l2.6.3c-.3,1.1-.7,2-1.2,2.9h1.5c.6,0,1.1,0,1.6,0,0,.5,0,1,0,1.5v4.3c0,.9,0,1.2,0,1.7-.5,0-.8,0-1.5,0h-4.1v2.1h4.1c.8,0,1.2,0,1.7,0,0,.6,0,1,0,1.8v5.1c0,.9,0,1.4,0,2h-2.5v-1.1h-3.3v1.7h-2.6c.1-.8.2-1.6.2-2.5v-14.4c0-.6,0-1.6-.1-1.9.5,0,1,0,1.7,0h.8ZM547.2,834.6h3.1v-2.8h-3.1v2.8ZM547.2,844.4h3.3v-3.1h-3.3v3.1ZM555.6,829.8c-1,0-1.6,0-2.4.1v-2.6c.7,0,1.4.1,2.5.1h7.8c1.1,0,1.7,0,2.5-.1v2.6c-.8,0-1.4-.1-2.4-.1h-2.9v2.5h2.7c.9,0,1.4,0,1.9,0,0,.5,0,.9,0,1.9v9.8c0,.8-.2,1.4-.6,1.8-.4.3-.8.4-1.8.4s-.6,0-1.2,0c0-1.2-.2-1.7-.5-2.4.9.1,1,.2,1.2.2s.4,0,.4-.5v-8.7h-2.2v11.7c0,1,0,1.7.1,2.4h-2.8c.1-.7.2-1.5.2-2.4v-11.7h-1.8v9.4c0,1.2,0,1.8,0,2.3h-2.6c0-.6.1-1.1.1-2.6v-9.5c0-1,0-1.4,0-2,.6,0,1,0,2,0h2.3v-2.5h-2.8Z"/>
      <path d="M578.3,841c-1.4,3.1-2.9,4.5-4.9,4.5s-4.7-2.8-4.7-6.6.9-5.1,2.6-7c2-2.2,4.8-3.4,8.3-3.4,5.8,0,9.5,3.5,9.5,8.9s-2.2,7.5-5.8,9c-1.2.5-2.1.7-3.8,1-.4-1.3-.7-1.8-1.5-2.8,2.2-.3,3.6-.7,4.8-1.3,2.1-1.2,3.3-3.4,3.3-6s-1-4.2-3-5.3c-.7-.4-1.4-.6-2.4-.7-.5,3.8-1.3,7.1-2.5,9.8ZM574.8,832.4c-2,1.4-3.3,3.9-3.3,6.5s.8,3.5,1.9,3.5,1.6-1,2.5-3.1c.9-2.2,1.7-5.4,2-8.1-1.2.1-2.1.5-3.1,1.2Z"/>
      <path d="M604.4,838.5v6.3c0,.5,0,.7.3.8.3.1,1,.2,2.1.2,3.4,0,3.9,0,4.3-.3.3-.2.4-.9.5-2.6,1.1.5,1.4.6,2.4.7-.2,2.2-.5,3.3-1.2,3.9-.7.6-1.6.7-5.4.7s-5.3-.4-5.3-2.3v-6.7c-.3,0-.6.2-.8.3l-.6-2.4h.3c.6-.1.6-.2,1.1-.3v-1.2c0-.4,0-.6,0-.9-.2.3-.3.4-.6.8-.6-.9-1.1-1.3-1.8-1.9.6-.6.7-.8,1.1-1.3-.6,0-.8,0-1.7,0h-2.6q0,2.2,0,2.6h2.3c.8,0,1.3,0,1.8,0,0,.2,0,1.1,0,1.2v1.1c0,1.5,0,4.6-.2,6-.2,2.6-.5,3.9-1,4.5-.4.4-1,.6-2.1.6s-.2,0-.9,0q-.3,0-.6,0c0-1.1-.2-1.7-.5-2.5.1,0,.3,0,.3,0,.6,0,1,.1,1.3.1.7,0,.8-.2,1-1.5.2-1.5.4-4.2.4-7.2h-1.9c-.2,2.9-.4,4.4-.8,5.9-.6,2.3-1.2,3.9-2.4,5.5-.6-1-1.1-1.6-1.8-2.2,1.3-2,1.9-3.7,2.3-6.8.4-2.7.4-3.4.4-7.4h-.3c-.8,0-1.5,0-2,.1v-2.6c.7.1,1.2.1,2.2.1h1.4v-1.2c0-.9,0-1.5-.1-2.1h2.8c0,.7-.1,1.1-.1,2.1v1.2h1c1,0,1.6,0,2.2-.1v1.8c1.1-1.7,2.1-3.9,2.4-5.3l2.7.5c-.1.2-.2.5-.4.9,0,.2-.2.6-.6,1.4h6.1c1.1,0,1.8,0,2.5-.1v2.6c-.6,0-1.6,0-2.4,0h-7.3c-.5.8-.8,1.3-1.3,2.1h1.8c0,.6-.1.9-.1,1.9v.5l1.9-.5v-1.3c0-.9,0-1.6,0-2h2.5c0,.5-.1,1-.1,1.9v.8l2.4-.7c.1,0,.4-.1.8-.3.2,0,.4-.1.6-.2.4,0,.5-.1.7-.2-.1,5.8-.2,7.3-.6,8.2-.3.7-.8.9-2.2.9s-.2,0-.9,0c0-.9-.2-1.5-.6-2.3.5,0,.8.1,1.2.1.5,0,.6-.1.7-1.2,0-.8,0-1.7,0-2.7l-2.2.6v4.3c0,1.1,0,1.4,0,2h-2.4c0-.6,0-1,0-2v-3.6l-1.9.6Z"/>
      <path d="M625.6,829.2c0-1.2,0-1.8-.1-2.6h2.7c-.1.8-.1,1.4-.1,2.6v2h1.1c1.1,0,1.5,0,2.2-.1v1.9c.4,0,.6,0,1.2,0h3.6c1,0,1.4,0,2-.1v2.7c-.6,0-.9,0-2,0v10.3c0,1.3-.3,1.9-1.1,2.2-.4.1-1.3.2-2.5.2s-.7,0-1.9,0c0-1-.2-1.7-.6-2.5,1.1.1,1.9.2,2.8.2s.8-.1.8-.6v-9.8h-1.1c-.7,0-1.1,0-1.5,0v-1.9c-.4,0-.7,0-1.3,0h-1.7v12c0,1.4,0,2,.1,2.9h-2.7c.1-.9.1-1.6.1-2.9v-12h-2.1c-.7,0-1,0-1.5,0-.6,1.1-1.2,1.9-1.6,2.5v9.6c0,1.3,0,2,.1,2.7h-2.7c0-.8.1-1.5.1-2.8v-4.4c0-1,0-1,0-2.6-.4.6-1,1.2-1.6,1.6-.3-1.3-.5-1.8-.9-2.6,1.4-1,2.5-2.2,3.6-3.8.6-.8,1-1.6,1.2-2.2l1.7,1v-1.6c.7,0,1.1.1,2.2.1h1.5v-2ZM622.3,827.6c0,.1-.5.6-1.2,1.6-1.1,1.4-2.3,2.5-4.2,3.9-.3-.9-.6-1.4-1.2-2.3,1.9-1.2,3.6-2.9,4.3-4.5l2.3,1.3ZM624.7,835.4c-.3,5.4-.7,8.1-1.7,10.7-.7-.4-1.1-.7-2.2-1.2.6-1.4,1-2.5,1.2-4,.2-1.5.4-3.7.5-5.8l2.2.3ZM630.2,830.8c-.7-1.4-.9-1.7-1.9-3l1.8-1.1c.8.9,1.2,1.4,1.8,2.4v-1.4c.5,0,1.1.1,1.9.1h2.2c.8,0,1.4,0,1.9-.1v2.7c-.6,0-1.1-.1-1.9-.1h-2.2c-.7,0-1.3,0-1.9.1v-.6l-1.7,1ZM630.6,835.1c.7,2.7,1.3,5.3,1.8,8.4l-2.2.7c-.4-3.7-.9-6.3-1.6-8.7l2-.5Z"/>
      <path d="M650.2,838.1c0,1.1,0,1.3,0,1.9-.2,0-1,0-2.4,0h-4c-.2,4-.7,6.1-2.1,8.5-.7-.9-1.2-1.3-2.1-1.9,1.5-2.5,1.9-5,1.9-11.5s0-2.4-.1-3.3c.8,0,1.4,0,2.5,0h3.9c1.1,0,1.7,0,2.4,0,0,.5,0,1.2,0,2.2v4.1ZM640.5,827.4c.7,0,1.3.1,2.6.1h5.2c1.4,0,2,0,2.6-.1v2.7c-.6,0-1.2-.1-2.5-.1h-5.4c-1.1,0-1.8,0-2.4.1v-2.7ZM647.7,837.7v-3.6h-3.7v1.7c0,.9,0,1.1,0,1.8h3.8ZM654.3,836.3c-.1,2.9-.5,4.8-1.1,6.6-.5,1.4-1.2,2.7-2.1,3.9-.4.5-.7.9-1.5,1.8-.6-.9-1.2-1.4-2-2,1.8-1.7,2.8-3.2,3.4-5.3.5-1.8.8-4.5.8-8.9s0-3,0-3.8c3,0,7-.9,9-2l1.4,2.4c-.4,0-.6.1-1.1.3-2.5.8-4,1.1-6.6,1.5v3h5.4c1.1,0,1.6,0,2.3-.1v2.8c-.6,0-1.2-.1-2.1-.1h-.4v9.5c0,1.2,0,1.8.1,2.6h-2.8c0-.8.1-1.4.1-2.6v-9.5h-2.8Z"/>
    </g>
    <rect class="st6" x="249.2" y="834.6" width="80" height="5"/>
    <rect class="st0" x="726.2" y="834.6" width="80" height="5"/>
    <g>
      <path d="M4.6,14.6c-1.1,0-1.7,0-2.5,0,0-.8,0-1.4,0-2.4v-5.1c0-1.2,0-1.8,0-2.5.6,0,1.1,0,2.2,0-.6-1.2-1.1-2-2.1-3.1l2.4-1c1.1,1.3,1.6,2,2.4,3.4l-1.8.8h9.1c1.1-1.6,1.8-2.8,2.4-4.3l2.8.9c-1,1.7-1.6,2.5-2.3,3.4,1.3,0,1.9,0,2.5,0,0,.6,0,1.3,0,2.5v5c0,1.2,0,1.8,0,2.5-.8,0-1.6,0-2.5,0h-5v1.6h7c1.2,0,1.9,0,2.6-.1v2.7c-.7,0-1.7-.1-2.9-.1h-6.7v1.6c0,1.2,0,1.7.2,2.4h-3c.1-.7.1-1.2.1-2.4v-1.6H2.9c-1.2,0-2.1,0-2.9.1v-2.7c.7,0,1.5.1,2.6.1h6.7v-1.6h-4.8ZM9.4,6.9h-4.6v1.6h4.6v-1.6ZM9.4,10.5h-4.6v1.8h4.6v-1.8ZM10.1,4.6c-.5-1.4-.9-2.1-1.9-3.7l2.5-.7c.9,1.4,1.2,1.9,1.9,3.6l-2.5.9ZM16.9,8.5v-1.6h-4.9v1.6h4.9ZM16.9,12.4v-1.8h-4.9v1.8h4.9Z"/>
      <path d="M26.1,12.8c0-.8,0-1.7,0-2.7-.8,1.3-1.2,1.7-1.8,2.5-.2-.9-.6-1.9-1.1-2.9,1.7-1.8,3-4,4-6.6.5-1.2.8-2.3.9-3.2l2.8.7c-.7,2.2-1.4,3.8-2.2,5.7v13.3c0,1.1,0,1.9.2,2.8h-2.9c.1-.9.2-1.6.2-2.8v-6.8ZM37.9,19c1.4-3.8,2.6-8.3,2.9-11.3l2.9.7q-.3,1.2-.9,3.3c-.5,2.1-1.3,4.6-2.3,7.3h2.7c1.2,0,2,0,2.8-.1v2.7c-.8-.1-1.7-.2-2.9-.2h-10.4c-1.2,0-2.1,0-2.9.2v-2.7c.7,0,1.5.1,2.8.1h5.2ZM36.4,2.3c0-.8,0-1.3-.1-1.9h2.9c0,.5-.1,1-.1,1.9v2h3.6c1.2,0,2,0,2.7-.1v2.7c-.8,0-1.6-.1-2.8-.1h-9.3c-1.3,0-2.2,0-2.8.1v-2.7c.7,0,1.4.1,2.8.1h3.2v-2ZM34,18c-.7-3.7-1.4-6.3-2.5-9.2l2.5-.9c1.2,3.3,1.8,5.4,2.7,9.4l-2.6.7Z"/>
      <path d="M60.6,4.5v3.5h-3.5v-3.5h3.5ZM60.6,14.7v3.5h-3.5v-3.5h3.5Z"/>
      <path d="M81.2,1.1c0,.2-.1.5-.2.7,0,.3,0,.4-.1.8q0,.5-.4,2.3c0,.5,0,.6-.2.9.7,0,1,0,1.5,0,1.6,0,2.8.4,3.6,1.3.8.9,1.1,2.1,1.1,4.2,0,4.1-.7,7.4-1.8,8.7-.7.8-1.4,1.1-2.7,1.1s-2.1-.2-3.7-.7c0-.5,0-.8,0-1.1,0-.6,0-1.1-.2-2,1.3.6,2.7.9,3.5.9s1.1-.5,1.4-1.6c.4-1.2.6-3.4.6-5.5s-.6-2.9-2.4-2.9-.8,0-1.4,0c-.7,2.9-.9,3.6-1.5,5.2-.8,2.4-1.5,3.9-2.9,6.7q-.1.2-.4.7c0,.1,0,.2-.2.4l-2.8-1.5c.7-1,1.7-2.7,2.5-4.5,1-2.4,1.4-3.4,2.3-6.8-1.2.1-3.5.6-4.3.8l-.3-2.8c.9,0,3.8-.3,5.1-.5.4-2.6.6-4.1.6-4.8v-.5l3.1.3ZM89.2,4.2c2.4,2.8,3.9,5.7,4.9,9.4l-2.7,1.4c-.5-2.1-1-3.6-1.9-5.4-.9-1.8-1.6-2.9-2.8-4.1l2.5-1.2Z"/>
      <path d="M106.1,11.9c0,1.1,0,1.3,0,1.9-.2,0-1,0-2.4,0h-4c-.2,4-.7,6.1-2.1,8.5-.7-.9-1.2-1.3-2.1-1.9,1.5-2.5,1.9-5,1.9-11.5s0-2.4-.1-3.3c.8,0,1.4,0,2.5,0h3.9c1.1,0,1.7,0,2.4,0,0,.5,0,1.2,0,2.2v4.1ZM96.4,1.2c.7,0,1.3.1,2.6.1h5.2c1.4,0,2,0,2.6-.1v2.7c-.6,0-1.2-.1-2.5-.1h-5.4c-1.1,0-1.8,0-2.4.1V1.2ZM103.6,11.5v-3.6h-3.7v1.7c0,.9,0,1.1,0,1.8h3.8ZM110.2,10.1c-.1,2.9-.5,4.8-1.1,6.6-.5,1.4-1.2,2.7-2.1,3.9-.4.5-.7.9-1.5,1.8-.6-.9-1.2-1.4-2-2,1.8-1.7,2.8-3.2,3.4-5.3.5-1.8.8-4.5.8-8.9s0-3,0-3.8c3,0,7-.9,9-2l1.4,2.4c-.4,0-.6.1-1.1.3-2.5.8-4,1.1-6.6,1.5v3h5.4c1.1,0,1.6,0,2.3-.1v2.8c-.6,0-1.2-.1-2.1-.1h-.4v9.5c0,1.2,0,1.8.1,2.6h-2.8c0-.8.1-1.4.1-2.6v-9.5h-2.8Z"/>
    </g>
    <g>
      <path d="M214,276.3c-.7-.1-1.2-.1-2-.1h-.7v1.4c0,1,0,1.5.2,2.3h-2.8c.1-.7.2-1.3.2-2.3v-1.4h-5.5c-1.2,0-1.8,0-2.5,0v-2.5c.7-.7.9-1,1.6-1.8l4.7-5.8c.9-1.1,1.2-1.5,1.7-2.2h2.7c-.1,1.2-.1,1.9-.1,3.4v6.6h.7c.8,0,1.3,0,2-.1v2.6ZM208.8,269.8c0-.9,0-1.6,0-2.4-.4.6-.6.9-1.4,1.8l-3.8,4.8h5.1v-4.1Z"/>
      <path d="M218.1,279.9c-1.6,0-1.9,0-2.6,0,.1-1.1.3-1.8.5-2.6.5-1.5,1.4-2.7,2.7-3.9.7-.6,1.3-1.1,3.3-2.4,1.8-1.3,2.4-1.9,2.4-2.9s-1.1-2.2-2.8-2.2-2,.4-2.5,1.2c-.3.5-.5.9-.6,1.8l-2.9-.3c.3-1.5.6-2.3,1.4-3.2,1-1.2,2.6-1.8,4.6-1.8,3.5,0,5.7,1.7,5.7,4.4s-.4,2.3-1.4,3.2c-.6.5-.8.7-3.4,2.5-.9.6-1.9,1.5-2.4,2-.6.6-.8,1-1.1,1.8h5.6c1.3,0,2.3,0,2.9-.2v2.6c-.9,0-1.7-.1-3-.1h-6.4Z"/>
      <path d="M232.9,279.9c0,1.7-.4,2.4-2.1,3l-.7-1.1c1.2-.3,1.5-.7,1.5-1.9h-1.7v-2.9h2.9v2.9Z"/>
      <path d="M247.9,276.3c-.7-.1-1.2-.1-2-.1h-.7v1.4c0,1,0,1.5.2,2.3h-2.8c.1-.7.2-1.3.2-2.3v-1.4h-5.5c-1.2,0-1.8,0-2.5,0v-2.5c.7-.7.9-1,1.6-1.8l4.7-5.8c.9-1.1,1.2-1.5,1.7-2.2h2.7c-.1,1.2-.1,1.9-.1,3.4v6.6h.7c.8,0,1.3,0,2-.1v2.6ZM242.7,269.8c0-.9,0-1.6.1-2.4-.4.6-.6.9-1.4,1.8l-3.8,4.8h5.1v-4.1Z"/>
      <path d="M252,275.6c.3.9.4,1.2.9,1.6.7.5,1.5.8,2.4.8,2,0,3.2-1,3.2-2.6s-.4-1.7-1.1-2.1c-.5-.3-1.4-.5-2.3-.5s-1.5,0-2.1.1v-2.5c.6,0,1.1.1,1.9.1,2,0,3.2-.9,3.2-2.5s-.9-2.2-2.6-2.2-1.7.2-2.2.6c-.4.4-.6.7-.8,1.5l-2.9-.5c.5-1.5,1-2.2,1.9-2.9,1-.7,2.3-1.1,3.9-1.1,3.3,0,5.5,1.7,5.5,4.3s-.5,2.3-1.4,2.9c-.4.3-.9.5-1.9.8,1.4.2,2.2.6,2.9,1.3.7.7,1,1.6,1,2.8s-.5,2.2-1.2,2.9c-1.1,1.1-2.8,1.6-4.9,1.6s-3.9-.6-5.1-1.9c-.5-.6-.8-1.1-1.1-2.2l2.9-.6Z"/>
      <path d="M268.5,279.9c.1-.8.2-1.6.2-2.6v-11h-1c-.7,0-1.3,0-2.1.1v-2.5c.6.1,1.1.1,2,.1h1.8c1,0,1.3,0,2,0-.1,1.2-.2,2.1-.2,3.3v10.1c0,1.1,0,1.8.2,2.6h-3Z"/>
    </g>
    <g>
      <path d="M396.6,215.3c-.7-.1-1.2-.1-2-.1h-.7v1.4c0,1,0,1.5.2,2.3h-2.8c.1-.7.2-1.3.2-2.3v-1.4h-5.5c-1.2,0-1.8,0-2.5,0v-2.5c.7-.7.9-1,1.6-1.8l4.7-5.8c.9-1.1,1.2-1.5,1.7-2.2h2.7c-.1,1.2-.1,1.9-.1,3.4v6.6h.7c.8,0,1.3,0,2-.1v2.6ZM391.4,208.8c0-.9,0-1.6,0-2.4-.4.6-.6.9-1.4,1.8l-3.8,4.8h5.1v-4.1Z"/>
      <path d="M401,214.8c.2.6.3.8.6,1.2.6.7,1.4,1,2.5,1,2,0,3.3-1.3,3.3-3.3s-1.2-3.2-3.1-3.2-1.9.3-2.5.9c-.3.3-.4.5-.6.9l-2.5-.2c.2-1.4.2-1.5.3-2.1l.5-5c0-.4,0-1,0-2,.6,0,1.1,0,2.1,0h4.9c1.4,0,1.9,0,2.8-.2v2.5c-.9-.1-1.7-.2-2.8-.2h-4.7l-.3,3.5c0,.2,0,.4-.1.8,1-.8,2-1.2,3.4-1.2s2.9.5,3.9,1.5c1,1,1.4,2.2,1.4,3.8,0,3.5-2.3,5.7-6,5.7s-3.5-.6-4.6-1.7c-.5-.6-.8-1.1-1.3-2.2l2.8-.6Z"/>
      <path d="M415.5,218.9c0,1.7-.4,2.4-2.1,3l-.7-1.1c1.2-.3,1.5-.7,1.5-1.9h-1.7v-2.9h2.9v2.9Z"/>
      <path d="M420.7,214.8c.2.6.3.8.6,1.2.6.7,1.4,1,2.5,1,2,0,3.3-1.3,3.3-3.3s-1.2-3.2-3.1-3.2-1.9.3-2.5.9c-.3.3-.4.5-.6.9l-2.5-.2c.2-1.4.2-1.5.3-2.1l.5-5c0-.4,0-1,0-2,.6,0,1.1,0,2.1,0h4.9c1.4,0,1.9,0,2.8-.2v2.5c-.9-.1-1.7-.2-2.8-.2h-4.7l-.3,3.5c0,.2,0,.4-.1.8,1-.8,2-1.2,3.4-1.2s2.9.5,3.9,1.5c1,1,1.4,2.2,1.4,3.8,0,3.5-2.3,5.7-6,5.7s-3.5-.6-4.6-1.7c-.5-.6-.8-1.1-1.3-2.2l2.8-.6Z"/>
      <path d="M444,205.2c-.6.6-1.2,1.4-2.1,2.9-2.1,3.5-3.2,6.6-3.7,10.8h-3.2c.7-3.3,1.3-5.3,2.4-7.7.9-2,1.7-3.3,3.5-5.8h-6.2c-1.2,0-1.8,0-2.6.1v-2.6c.9.1,1.6.1,2.7.1h6.4c1.5,0,2,0,2.7,0v2.3Z"/>
      <path d="M448.9,218.9c-1.6,0-1.9,0-2.6,0,.1-1.1.3-1.8.5-2.6.5-1.5,1.4-2.7,2.7-3.9.7-.6,1.3-1.1,3.3-2.4,1.8-1.3,2.4-1.9,2.4-2.9s-1.1-2.2-2.8-2.2-2,.4-2.5,1.2c-.3.5-.5.9-.6,1.8l-2.9-.3c.3-1.5.6-2.3,1.4-3.2,1-1.2,2.6-1.8,4.6-1.8,3.5,0,5.7,1.7,5.7,4.4s-.4,2.3-1.4,3.2c-.6.5-.8.7-3.4,2.5-.9.6-1.9,1.5-2.4,2-.6.6-.8,1-1.1,1.8h5.6c1.3,0,2.3,0,2.9-.2v2.6c-.9,0-1.7-.1-3-.1h-6.4Z"/>
    </g>
    <g>
      <path d="M579.2,174.3c-.7-.1-1.2-.1-2-.1h-.7v1.4c0,1,0,1.5.2,2.3h-2.8c.1-.7.2-1.3.2-2.3v-1.4h-5.5c-1.2,0-1.8,0-2.5,0v-2.5c.7-.7.9-1,1.6-1.8l4.7-5.8c.9-1.1,1.2-1.5,1.7-2.2h2.7c-.1,1.2-.1,1.9-.1,3.4v6.6h.7c.8,0,1.3,0,2-.1v2.6ZM574,167.8c0-.9,0-1.6,0-2.4-.4.6-.6.9-1.4,1.8l-3.8,4.8h5.1v-4.1Z"/>
      <path d="M582.2,168.5c-.6-.6-1-1.6-1-2.6,0-2.6,2.2-4.2,5.6-4.2s4.2.8,5.1,2.2c.3.6.5,1.3.5,2,0,1.9-1.1,3.2-2.9,3.7.9.1,1.5.4,2.2.9.9.8,1.4,1.8,1.4,3.1,0,3-2.2,4.6-6.3,4.6s-3.9-.5-5.1-1.6c-.7-.7-1.2-1.8-1.2-3s.5-2.5,1.6-3.3c.7-.5,1.2-.7,2-.8-.8-.2-1.4-.5-1.9-1.1ZM590.3,173.4c0-1.7-1.3-2.7-3.5-2.7s-3.5,1-3.5,2.7,1.3,2.6,3.4,2.6,3.5-.9,3.5-2.6ZM583.9,166.1c0,1.5,1.1,2.4,2.9,2.4s2.9-.9,2.9-2.4-1.1-2.3-2.9-2.3-2.9.9-2.9,2.3Z"/>
      <path d="M598.1,177.9c0,1.7-.4,2.4-2.1,3l-.7-1.1c1.2-.3,1.5-.7,1.5-1.9h-1.7v-2.9h2.9v2.9Z"/>
      <path d="M602.2,176.6c-.6-.6-1.1-1.3-1.3-2-.5-1.4-.8-3-.8-4.6s.5-4.3,1.2-5.5c1.1-1.8,2.9-2.8,5.1-2.8s3.2.6,4.2,1.6c.6.6,1.1,1.3,1.3,2,.5,1.4.8,3,.8,4.6,0,2.5-.5,4.6-1.5,5.9-1.1,1.6-2.8,2.4-4.9,2.4s-3.1-.6-4.2-1.6ZM608.6,175.1c.9-.9,1.4-2.8,1.4-5.1s-.5-4.1-1.4-5.1c-.5-.5-1.3-.8-2.2-.8s-1.7.3-2.2,1c-.9,1-1.3,2.7-1.3,4.9s.4,3.8,1,4.8c.6.9,1.5,1.3,2.6,1.3s1.7-.3,2.2-.8Z"/>
      <path d="M617.2,177.9c-1.6,0-1.9,0-2.6,0,.1-1.1.3-1.8.5-2.6.5-1.5,1.4-2.7,2.7-3.9.7-.6,1.3-1.1,3.3-2.4,1.8-1.3,2.4-1.9,2.4-2.9s-1.1-2.2-2.8-2.2-2,.4-2.5,1.2c-.3.5-.5.9-.6,1.8l-2.9-.3c.3-1.5.6-2.3,1.4-3.2,1-1.2,2.6-1.8,4.6-1.8,3.5,0,5.7,1.7,5.7,4.4s-.4,2.3-1.4,3.2c-.6.5-.8.7-3.4,2.5-.9.6-1.9,1.5-2.4,2-.6.6-.8,1-1.1,1.8h5.6c1.3,0,2.3,0,2.9-.2v2.6c-.9,0-1.7-.1-3-.1h-6.4Z"/>
      <path d="M641.6,174.3c-.7-.1-1.2-.1-2-.1h-.7v1.4c0,1,0,1.5.2,2.3h-2.8c.1-.7.2-1.3.2-2.3v-1.4h-5.5c-1.2,0-1.8,0-2.5,0v-2.5c.7-.7.9-1,1.6-1.8l4.7-5.8c.9-1.1,1.2-1.5,1.7-2.2h2.7c-.1,1.2-.1,1.9-.1,3.4v6.6h.7c.8,0,1.3,0,2-.1v2.6ZM636.3,167.8c0-.9,0-1.6.1-2.4-.4.6-.6.9-1.4,1.8l-3.8,4.8h5.1v-4.1Z"/>
    </g>
    <g>
      <path d="M752,132.8c.2.6.3.8.6,1.2.6.7,1.4,1,2.5,1,2,0,3.3-1.3,3.3-3.3s-1.2-3.2-3.1-3.2-1.9.3-2.5.9c-.3.3-.4.5-.6.9l-2.5-.2c.2-1.4.2-1.5.3-2.1l.5-5c0-.4,0-1,0-2,.6,0,1.1,0,2.1,0h4.9c1.4,0,1.9,0,2.8-.2v2.5c-.9-.1-1.7-.2-2.8-.2h-4.7l-.3,3.5c0,.2,0,.4-.1.8,1-.8,2-1.2,3.4-1.2s2.9.5,3.9,1.5c1,1,1.4,2.2,1.4,3.8,0,3.5-2.3,5.7-6,5.7s-3.5-.6-4.6-1.7c-.5-.6-.8-1.1-1.3-2.2l2.8-.6Z"/>
      <path d="M765.2,135.6c-.6-.6-1.1-1.3-1.3-2-.5-1.4-.8-3-.8-4.6s.5-4.3,1.2-5.5c1.1-1.8,2.9-2.8,5.1-2.8s3.2.6,4.2,1.6c.6.6,1.1,1.3,1.3,2,.5,1.4.8,3,.8,4.6,0,2.5-.5,4.6-1.5,5.9-1.1,1.6-2.8,2.4-4.9,2.4s-3.1-.6-4.2-1.6ZM771.6,134.1c.9-.9,1.4-2.8,1.4-5.1s-.5-4.1-1.4-5.1c-.5-.5-1.3-.8-2.2-.8s-1.7.3-2.2,1c-.9,1-1.3,2.7-1.3,4.9s.4,3.8,1,4.8c.6.9,1.5,1.3,2.6,1.3s1.7-.3,2.2-.8Z"/>
      <path d="M780.7,136.9c0,1.7-.4,2.4-2.1,3l-.7-1.1c1.2-.3,1.5-.7,1.5-1.9h-1.7v-2.9h2.9v2.9Z"/>
      <path d="M784.8,135.6c-.6-.6-1.1-1.3-1.3-2-.5-1.4-.8-3-.8-4.6s.5-4.3,1.2-5.5c1.1-1.8,2.9-2.8,5.1-2.8s3.2.6,4.2,1.6c.6.6,1.1,1.3,1.3,2,.5,1.4.8,3,.8,4.6,0,2.5-.5,4.6-1.5,5.9-1.1,1.6-2.8,2.4-4.9,2.4s-3.1-.6-4.2-1.6ZM791.2,134.1c.9-.9,1.4-2.8,1.4-5.1s-.5-4.1-1.4-5.1c-.5-.5-1.3-.8-2.2-.8s-1.7.3-2.2,1c-.9,1-1.3,2.7-1.3,4.9s.4,3.8,1,4.8c.6.9,1.5,1.3,2.6,1.3s1.7-.3,2.2-.8Z"/>
      <path d="M809.2,123.2c-.6.6-1.2,1.4-2.1,2.9-2.1,3.5-3.2,6.6-3.7,10.8h-3.2c.7-3.3,1.3-5.3,2.4-7.7.9-2,1.7-3.3,3.5-5.8h-6.2c-1.2,0-1.8,0-2.6.1v-2.6c.9.1,1.6.1,2.7.1h6.4c1.5,0,2,0,2.7,0v2.3Z"/>
      <path d="M823.4,123.2c-.6.6-1.2,1.4-2.1,2.9-2.1,3.5-3.2,6.6-3.7,10.8h-3.2c.7-3.3,1.3-5.3,2.4-7.7.9-2,1.7-3.3,3.5-5.8h-6.2c-1.2,0-1.8,0-2.6.1v-2.6c.9.1,1.6.1,2.7.1h6.4c1.5,0,2,0,2.7,0v2.3Z"/>
    </g>
    <g>
      <path d="M934.6,127.8c.2.6.3.8.6,1.2.6.7,1.4,1,2.5,1,2,0,3.3-1.3,3.3-3.3s-1.2-3.2-3.1-3.2-1.9.3-2.5.9c-.3.3-.4.5-.6.9l-2.5-.2c.2-1.4.2-1.5.3-2.1l.5-5c0-.4,0-1,0-2,.6,0,1.1,0,2.1,0h4.9c1.4,0,1.9,0,2.8-.2v2.5c-.9-.1-1.7-.2-2.8-.2h-4.7l-.3,3.5c0,.2,0,.4-.1.8,1-.8,2-1.2,3.4-1.2s2.9.5,3.9,1.5c1,1,1.4,2.2,1.4,3.8,0,3.5-2.3,5.7-6,5.7s-3.5-.6-4.6-1.7c-.5-.6-.8-1.1-1.3-2.2l2.8-.6Z"/>
      <path d="M947.8,130.6c-.6-.6-1.1-1.3-1.3-2-.5-1.4-.8-3-.8-4.6s.5-4.3,1.2-5.5c1.1-1.8,2.9-2.8,5.1-2.8s3.2.6,4.2,1.6c.6.6,1.1,1.3,1.3,2,.5,1.4.8,3,.8,4.6,0,2.5-.5,4.6-1.5,5.9-1.1,1.6-2.8,2.4-4.9,2.4s-3.1-.6-4.2-1.6ZM954.2,129.1c.9-.9,1.4-2.8,1.4-5.1s-.5-4.1-1.4-5.1c-.5-.5-1.3-.8-2.2-.8s-1.7.3-2.2,1c-.9,1-1.3,2.7-1.3,4.9s.4,3.8,1,4.8c.6.9,1.5,1.3,2.6,1.3s1.7-.3,2.2-.8Z"/>
      <path d="M963.3,131.9c0,1.7-.4,2.4-2.1,3l-.7-1.1c1.2-.3,1.5-.7,1.5-1.9h-1.7v-2.9h2.9v2.9Z"/>
      <path d="M968.2,127.6c.3.9.4,1.2.9,1.6.7.5,1.5.8,2.4.8,2,0,3.2-1,3.2-2.6s-.4-1.7-1.1-2.1c-.5-.3-1.4-.5-2.3-.5s-1.5,0-2.1.1v-2.5c.6,0,1.1.1,1.9.1,2,0,3.2-.9,3.2-2.5s-.9-2.2-2.6-2.2-1.7.2-2.2.6c-.4.4-.6.7-.8,1.5l-2.9-.5c.5-1.5,1-2.2,1.9-2.9,1-.7,2.3-1.1,3.9-1.1,3.3,0,5.5,1.7,5.5,4.3s-.5,2.3-1.4,2.9c-.4.3-.9.5-1.9.8,1.4.2,2.2.6,2.9,1.3.7.7,1,1.6,1,2.8s-.5,2.2-1.2,2.9c-1.1,1.1-2.8,1.6-4.9,1.6s-3.9-.6-5.1-1.9c-.5-.6-.8-1.1-1.1-2.2l2.9-.6Z"/>
      <path d="M989,119.9c-.5-1.5-1.3-2-2.7-2s-2.5.7-3.1,2.1c-.5,1-.7,2-.8,3.5,1.1-1.5,2.3-2,4.3-2s3.8.9,4.6,2.4c.5.8.7,1.8.7,3,0,3.2-2.4,5.4-5.8,5.4s-3.1-.5-4.1-1.3c-1.5-1.3-2.3-3.7-2.3-6.7s.6-4.8,1.6-6.2c1.2-1.6,2.8-2.4,4.9-2.4s3.1.5,4.1,1.5c.5.5.8,1,1.3,2l-2.7.6ZM982.8,126.9c0,1.8,1.4,3.2,3.4,3.2s2.2-.5,2.7-1.4c.3-.5.5-1.1.5-1.8,0-2-1.2-3.1-3.2-3.1s-3.4,1.4-3.4,3.2Z"/>
      <path d="M1006.8,128.3c-.7-.1-1.2-.1-2-.1h-.7v1.4c0,1,0,1.5.2,2.3h-2.8c.1-.7.2-1.3.2-2.3v-1.4h-5.5c-1.2,0-1.8,0-2.5,0v-2.5c.7-.7.9-1,1.6-1.8l4.7-5.8c.9-1.1,1.2-1.5,1.7-2.2h2.7c-.1,1.2-.1,1.9-.1,3.4v6.6h.7c.8,0,1.3,0,2-.1v2.6ZM1001.5,121.8c0-.9,0-1.6,0-2.4-.4.6-.6.9-1.4,1.8l-3.8,4.8h5.1v-4.1Z"/>
    </g>
    <g>
      <path d="M1117.2,116.8c.2.6.3.8.6,1.2.6.7,1.4,1,2.5,1,2,0,3.3-1.3,3.3-3.3s-1.2-3.2-3.1-3.2-1.9.3-2.5.9c-.3.3-.4.5-.6.9l-2.5-.2c.2-1.4.2-1.5.3-2.1l.5-5c0-.4,0-1,0-2,.6,0,1.1,0,2.1,0h4.9c1.4,0,1.9,0,2.8-.2v2.5c-.9-.1-1.7-.2-2.8-.2h-4.7l-.3,3.5c0,.2,0,.4-.1.8,1-.8,2-1.2,3.4-1.2s2.9.5,3.9,1.5c1,1,1.4,2.2,1.4,3.8,0,3.5-2.3,5.7-6,5.7s-3.5-.6-4.6-1.7c-.5-.6-.8-1.1-1.3-2.2l2.8-.6Z"/>
      <path d="M1130.4,119.6c-.6-.6-1.1-1.3-1.3-2-.5-1.4-.8-3-.8-4.6s.5-4.3,1.2-5.5c1.1-1.8,2.9-2.8,5.1-2.8s3.2.6,4.2,1.6c.6.6,1.1,1.3,1.3,2,.5,1.4.8,3,.8,4.6,0,2.5-.5,4.6-1.5,5.9-1.1,1.6-2.8,2.4-4.9,2.4s-3.1-.6-4.2-1.6ZM1136.8,118.1c.9-.9,1.4-2.8,1.4-5.1s-.5-4.1-1.4-5.1c-.5-.5-1.3-.8-2.2-.8s-1.7.3-2.2,1c-.9,1-1.3,2.7-1.3,4.9s.4,3.8,1,4.8c.6.9,1.5,1.3,2.6,1.3s1.7-.3,2.2-.8Z"/>
      <path d="M1145.9,120.9c0,1.7-.4,2.4-2.1,3l-.7-1.1c1.2-.3,1.5-.7,1.5-1.9h-1.7v-2.9h2.9v2.9Z"/>
      <path d="M1151.1,117c.2.6.4.8.6,1.1.5.5,1.3.8,2.3.8s1.7-.3,2.3-.8c1-1,1.5-2.4,1.6-4.8-.4.6-.6.8-1.1,1.1-.9.6-1.9.9-3.2.9-3.3,0-5.4-2-5.4-5.3s.9-3.7,2.5-4.7c.9-.6,2.1-.9,3.5-.9,2.6,0,4.7,1.5,5.5,3.9.4,1.1.6,2.5.6,4.1,0,3-.8,5.7-2.1,6.9-1.1,1.1-2.4,1.5-4.3,1.5s-2.9-.4-3.9-1.2c-.7-.5-1.1-1.1-1.6-2.2l2.8-.7ZM1157.4,110c0-1.9-1.4-3.2-3.4-3.2s-3.3,1.4-3.3,3.3,1.2,3.2,3.2,3.2,3.4-1.4,3.4-3.3Z"/>
      <path d="M1167.3,120.9c.1-.8.2-1.6.2-2.6v-11h-1c-.7,0-1.3,0-2.1.1v-2.5c.6.1,1.1.1,2,.1h1.8c1,0,1.3,0,2,0-.1,1.2-.2,2.1-.2,3.3v10.1c0,1.1,0,1.8.2,2.6h-3Z"/>
      <path d="M1179.6,117c.2.6.4.8.6,1.1.5.5,1.3.8,2.3.8s1.7-.3,2.3-.8c1-1,1.5-2.4,1.6-4.8-.4.6-.6.8-1.1,1.1-.9.6-1.9.9-3.2.9-3.3,0-5.4-2-5.4-5.3s.9-3.7,2.5-4.7c.9-.6,2.1-.9,3.5-.9,2.6,0,4.7,1.5,5.5,3.9.4,1.1.6,2.5.6,4.1,0,3-.8,5.7-2.1,6.9-1.1,1.1-2.4,1.5-4.3,1.5s-2.9-.4-3.9-1.2c-.7-.5-1.1-1.1-1.6-2.2l2.8-.7ZM1185.9,110c0-1.9-1.4-3.2-3.4-3.2s-3.3,1.4-3.3,3.3,1.2,3.2,3.2,3.2,3.4-1.4,3.4-3.3Z"/>
    </g>
    <g>
      <path d="M203.9,667.9c-1.6,0-1.9,0-2.6,0,.1-1.1.3-1.8.5-2.6.5-1.5,1.4-2.7,2.7-3.9.7-.6,1.3-1.1,3.3-2.4,1.8-1.3,2.4-1.9,2.4-2.9s-1.1-2.2-2.8-2.2-2,.4-2.5,1.2c-.3.5-.5.9-.6,1.8l-2.9-.3c.3-1.5.6-2.3,1.4-3.2,1-1.2,2.6-1.8,4.6-1.8,3.5,0,5.7,1.7,5.7,4.4s-.4,2.3-1.4,3.2c-.6.5-.8.7-3.4,2.5-.9.6-1.9,1.5-2.4,2-.6.6-.8,1-1.1,1.8h5.6c1.3,0,2.3,0,2.9-.2v2.6c-.9,0-1.7-.1-3-.1h-6.4Z"/>
      <path d="M218.2,663.6c.3.9.4,1.2.9,1.6.7.5,1.5.8,2.4.8,2,0,3.2-1,3.2-2.6s-.4-1.7-1.1-2.1c-.5-.3-1.4-.5-2.3-.5s-1.5,0-2.1,0v-2.5c.6,0,1.1,0,1.9,0,2,0,3.2-.9,3.2-2.5s-.9-2.2-2.6-2.2-1.7.2-2.2.6c-.4.4-.6.7-.8,1.5l-2.9-.5c.5-1.5,1-2.2,1.9-2.9,1-.7,2.3-1.1,3.9-1.1,3.3,0,5.5,1.7,5.5,4.3s-.5,2.3-1.4,2.9c-.4.3-.9.5-1.9.8,1.4.2,2.2.6,2.9,1.3.7.7,1,1.6,1,2.8s-.5,2.2-1.2,2.9c-1.1,1.1-2.8,1.6-4.9,1.6s-3.9-.6-5.1-1.9c-.5-.6-.8-1.1-1.1-2.2l2.9-.6Z"/>
      <path d="M232.9,667.9c0,1.7-.4,2.4-2.1,3l-.7-1.1c1.2-.3,1.5-.7,1.5-1.9h-1.7v-2.9h2.9v2.9Z"/>
      <path d="M240.1,667.9c.1-.8.2-1.6.2-2.6v-11h-1c-.7,0-1.3,0-2.1.1v-2.5c.6,0,1.1.1,2,.1h1.8c1,0,1.3,0,2,0-.1,1.2-.2,2.1-.2,3.3v10.1c0,1.1,0,1.8.2,2.6h-3Z"/>
      <path d="M262.1,664.3c-.7-.1-1.2-.1-2-.1h-.7v1.4c0,1,0,1.5.2,2.3h-2.8c.1-.7.2-1.3.2-2.3v-1.4h-5.5c-1.2,0-1.8,0-2.5,0v-2.5c.7-.7.9-1,1.6-1.8l4.7-5.8c.9-1.1,1.2-1.5,1.7-2.2h2.7c-.1,1.2-.1,1.9-.1,3.4v6.6h.7c.8,0,1.3,0,2-.1v2.6ZM256.9,657.8c0-.9,0-1.6,0-2.4-.4.6-.6.9-1.4,1.8l-3.8,4.8h5.1v-4.1Z"/>
      <path d="M266.5,663.8c.2.6.3.8.6,1.2.6.7,1.4,1,2.5,1,2,0,3.3-1.3,3.3-3.3s-1.2-3.2-3.1-3.2-1.9.3-2.5.9c-.3.3-.4.5-.6.9l-2.5-.2c.2-1.4.2-1.5.3-2.1l.5-5c0-.4,0-1,0-2,.6,0,1.1,0,2.1,0h4.9c1.4,0,1.9,0,2.8-.2v2.5c-.9-.1-1.7-.2-2.8-.2h-4.7l-.3,3.5c0,.2,0,.4-.1.8,1-.8,2-1.2,3.4-1.2s2.9.5,3.9,1.5c1,1,1.4,2.2,1.4,3.8,0,3.5-2.3,5.7-6,5.7s-3.5-.6-4.6-1.7c-.5-.6-.8-1.1-1.3-2.2l2.8-.6Z"/>
    </g>
    <g>
      <path d="M386.5,618.9c-1.6,0-1.9,0-2.6,0,.1-1.1.3-1.8.5-2.6.5-1.5,1.4-2.7,2.7-3.9.7-.6,1.3-1.1,3.3-2.4,1.8-1.3,2.4-1.9,2.4-2.9s-1.1-2.2-2.8-2.2-2,.4-2.5,1.2c-.3.5-.5.9-.6,1.8l-2.9-.3c.3-1.5.6-2.3,1.4-3.2,1-1.2,2.6-1.8,4.6-1.8,3.5,0,5.7,1.7,5.7,4.4s-.4,2.3-1.4,3.2c-.6.5-.8.7-3.4,2.5-.9.6-1.9,1.5-2.4,2-.6.6-.8,1-1.1,1.8h5.6c1.3,0,2.3,0,2.9-.2v2.6c-.9,0-1.7-.1-3-.1h-6.4Z"/>
      <path d="M401,614.8c.2.6.3.8.6,1.2.6.7,1.4,1,2.5,1,2,0,3.3-1.3,3.3-3.3s-1.2-3.2-3.1-3.2-1.9.3-2.5.9c-.3.3-.4.5-.6.9l-2.5-.2c.2-1.4.2-1.5.3-2.1l.5-5c0-.4,0-1,0-2,.6,0,1.1,0,2.1,0h4.9c1.4,0,1.9,0,2.8-.2v2.5c-.9-.1-1.7-.2-2.8-.2h-4.7l-.3,3.5c0,.2,0,.4-.1.8,1-.8,2-1.2,3.4-1.2s2.9.5,3.9,1.5c1,1,1.4,2.2,1.4,3.8,0,3.5-2.3,5.7-6,5.7s-3.5-.6-4.6-1.7c-.5-.6-.8-1.1-1.3-2.2l2.8-.6Z"/>
      <path d="M415.5,618.9c0,1.7-.4,2.4-2.1,3l-.7-1.1c1.2-.3,1.5-.7,1.5-1.9h-1.7v-2.9h2.9v2.9Z"/>
      <path d="M430.5,615.3c-.7-.1-1.2-.1-2-.1h-.7v1.4c0,1,0,1.5.2,2.3h-2.8c.1-.7.2-1.3.2-2.3v-1.4h-5.5c-1.2,0-1.8,0-2.5,0v-2.5c.7-.7.9-1,1.6-1.8l4.7-5.8c.9-1.1,1.2-1.5,1.7-2.2h2.7c-.1,1.2-.1,1.9-.1,3.4v6.6h.7c.8,0,1.3,0,2-.1v2.6ZM425.3,608.8c0-.9,0-1.6.1-2.4-.4.6-.6.9-1.4,1.8l-3.8,4.8h5.1v-4.1Z"/>
      <path d="M444.7,615.3c-.7-.1-1.2-.1-2-.1h-.7v1.4c0,1,0,1.5.2,2.3h-2.8c.1-.7.2-1.3.2-2.3v-1.4h-5.5c-1.2,0-1.8,0-2.5,0v-2.5c.7-.7.9-1,1.6-1.8l4.7-5.8c.9-1.1,1.2-1.5,1.7-2.2h2.7c-.1,1.2-.1,1.9-.1,3.4v6.6h.7c.8,0,1.3,0,2-.1v2.6ZM439.5,608.8c0-.9,0-1.6,0-2.4-.4.6-.6.9-1.4,1.8l-3.8,4.8h5.1v-4.1Z"/>
      <path d="M449.1,614.8c.2.6.3.8.6,1.2.6.7,1.4,1,2.5,1,2,0,3.3-1.3,3.3-3.3s-1.2-3.2-3.1-3.2-1.9.3-2.5.9c-.3.3-.4.5-.6.9l-2.5-.2c.2-1.4.2-1.5.3-2.1l.5-5c0-.4,0-1,0-2,.6,0,1.1,0,2.1,0h4.9c1.4,0,1.9,0,2.8-.2v2.5c-.9-.1-1.7-.2-2.8-.2h-4.7l-.3,3.5c0,.2,0,.4-.1.8,1-.8,2-1.2,3.4-1.2s2.9.5,3.9,1.5c1,1,1.4,2.2,1.4,3.8,0,3.5-2.3,5.7-6,5.7s-3.5-.6-4.6-1.7c-.5-.6-.8-1.1-1.3-2.2l2.8-.6Z"/>
    </g>
    <g>
      <path d="M569.1,567.9c-1.6,0-1.9,0-2.6,0,.1-1.1.3-1.8.5-2.6.5-1.5,1.4-2.7,2.7-3.9.7-.6,1.3-1.1,3.3-2.4,1.8-1.3,2.4-1.9,2.4-2.9s-1.1-2.2-2.8-2.2-2,.4-2.5,1.2c-.3.5-.5.9-.6,1.8l-2.9-.3c.3-1.5.6-2.3,1.4-3.2,1-1.2,2.6-1.8,4.6-1.8,3.5,0,5.7,1.7,5.7,4.4s-.4,2.3-1.4,3.2c-.6.5-.8.7-3.4,2.5-.9.6-1.9,1.5-2.4,2-.6.6-.8,1-1.1,1.8h5.6c1.3,0,2.3,0,2.9-.2v2.6c-.9,0-1.7-.1-3-.1h-6.4Z"/>
      <path d="M582.2,558.5c-.6-.6-1-1.6-1-2.6,0-2.6,2.2-4.2,5.6-4.2s4.2.8,5.1,2.2c.3.6.5,1.3.5,2,0,1.9-1.1,3.2-2.9,3.7.9.1,1.5.4,2.2.9.9.8,1.4,1.8,1.4,3.1,0,3-2.2,4.6-6.3,4.6s-3.9-.5-5.1-1.6c-.7-.7-1.2-1.8-1.2-3s.5-2.5,1.6-3.3c.7-.5,1.2-.7,2-.8-.8-.2-1.4-.5-1.9-1.1ZM590.3,563.4c0-1.7-1.3-2.7-3.5-2.7s-3.5,1-3.5,2.7,1.3,2.6,3.4,2.6,3.5-.9,3.5-2.6ZM583.9,556.1c0,1.5,1.1,2.4,2.9,2.4s2.9-.9,2.9-2.4-1.1-2.3-2.9-2.3-2.9.9-2.9,2.3Z"/>
      <path d="M598.1,567.9c0,1.7-.4,2.4-2.1,3l-.7-1.1c1.2-.3,1.5-.7,1.5-1.9h-1.7v-2.9h2.9v2.9Z"/>
      <path d="M603,567.9c-1.6,0-1.9,0-2.6,0,.1-1.1.3-1.8.5-2.6.5-1.5,1.4-2.7,2.7-3.9.7-.6,1.3-1.1,3.3-2.4,1.8-1.3,2.4-1.9,2.4-2.9s-1.1-2.2-2.8-2.2-2,.4-2.5,1.2c-.3.5-.5.9-.6,1.8l-2.9-.3c.3-1.5.6-2.3,1.4-3.2,1-1.2,2.6-1.8,4.6-1.8,3.5,0,5.7,1.7,5.7,4.4s-.4,2.3-1.4,3.2c-.6.5-.8.7-3.4,2.5-.9.6-1.9,1.5-2.4,2-.6.6-.8,1-1.1,1.8h5.6c1.3,0,2.3,0,2.9-.2v2.6c-.9,0-1.7-.1-3-.1h-6.4Z"/>
      <path d="M617.5,564c.2.6.4.8.6,1.1.5.5,1.3.8,2.3.8s1.7-.3,2.3-.8c1-1,1.5-2.4,1.6-4.8-.4.6-.6.8-1.1,1.1-.9.6-1.9.9-3.2.9-3.3,0-5.4-2-5.4-5.3s.9-3.7,2.5-4.7c.9-.6,2.1-.9,3.5-.9,2.6,0,4.7,1.5,5.5,3.9.4,1.1.6,2.5.6,4.1,0,3-.8,5.7-2.1,6.9-1.1,1.1-2.4,1.5-4.3,1.5s-2.9-.4-3.9-1.2c-.7-.5-1.1-1.1-1.6-2.2l2.8-.7ZM623.8,557c0-1.9-1.4-3.2-3.4-3.2s-3.3,1.4-3.3,3.3,1.2,3.2,3.2,3.2,3.4-1.4,3.4-3.3Z"/>
      <path d="M631.8,564c.2.6.4.8.6,1.1.5.5,1.3.8,2.3.8s1.7-.3,2.3-.8c1-1,1.5-2.4,1.6-4.8-.4.6-.6.8-1.1,1.1-.9.6-1.9.9-3.2.9-3.3,0-5.4-2-5.4-5.3s.9-3.7,2.5-4.7c.9-.6,2.1-.9,3.5-.9,2.6,0,4.7,1.5,5.5,3.9.4,1.1.6,2.5.6,4.1,0,3-.8,5.7-2.1,6.9-1.1,1.1-2.4,1.5-4.3,1.5s-2.9-.4-3.9-1.2c-.7-.5-1.1-1.1-1.6-2.2l2.8-.7ZM638.1,557c0-1.9-1.4-3.2-3.4-3.2s-3.3,1.4-3.3,3.3,1.2,3.2,3.2,3.2,3.4-1.4,3.4-3.3Z"/>
    </g>
    <g>
      <path d="M751.7,522.6c.3.9.4,1.2.9,1.6.7.5,1.5.8,2.4.8,2,0,3.2-1,3.2-2.6s-.4-1.7-1.1-2.1c-.5-.3-1.4-.5-2.3-.5s-1.5,0-2.1,0v-2.5c.6,0,1.1,0,1.9,0,2,0,3.2-.9,3.2-2.5s-.9-2.2-2.6-2.2-1.7.2-2.2.6c-.4.4-.6.7-.8,1.5l-2.9-.5c.5-1.5,1-2.2,1.9-2.9,1-.7,2.3-1.1,3.9-1.1,3.3,0,5.5,1.7,5.5,4.3s-.5,2.3-1.4,2.9c-.4.3-.9.5-1.9.8,1.4.2,2.2.6,2.9,1.3.7.7,1,1.6,1,2.8s-.5,2.2-1.2,2.9c-1.1,1.1-2.8,1.6-4.9,1.6s-3.9-.6-5.1-1.9c-.5-.6-.8-1.1-1.1-2.2l2.9-.6Z"/>
      <path d="M765.2,525.6c-.6-.6-1.1-1.3-1.3-2-.5-1.4-.8-3-.8-4.6s.5-4.3,1.2-5.5c1.1-1.8,2.9-2.8,5.1-2.8s3.2.6,4.2,1.6,1.1,1.3,1.3,2c.5,1.4.8,3,.8,4.6,0,2.5-.5,4.6-1.5,5.9-1.1,1.6-2.8,2.4-4.9,2.4s-3.1-.6-4.2-1.6ZM771.6,524.1c.9-.9,1.4-2.8,1.4-5.1s-.5-4.1-1.4-5.1c-.5-.5-1.3-.8-2.2-.8s-1.7.3-2.2,1c-.9,1-1.3,2.7-1.3,4.9s.4,3.8,1,4.8c.6.9,1.5,1.3,2.6,1.3s1.7-.3,2.2-.8Z"/>
      <path d="M780.7,526.9c0,1.7-.4,2.4-2.1,3l-.7-1.1c1.2-.3,1.5-.7,1.5-1.9h-1.7v-2.9h2.9v2.9Z"/>
      <path d="M795.7,523.3c-.7-.1-1.2-.1-2-.1h-.7v1.4c0,1,0,1.5.2,2.3h-2.8c.1-.7.2-1.3.2-2.3v-1.4h-5.5c-1.2,0-1.8,0-2.5,0v-2.5c.7-.7.9-1,1.6-1.8l4.7-5.8c.9-1.1,1.2-1.5,1.7-2.2h2.7c-.1,1.2-.1,1.9-.1,3.4v6.6h.7c.8,0,1.3,0,2-.1v2.6ZM790.5,516.8c0-.9,0-1.6.1-2.4-.4.6-.6.9-1.4,1.8l-3.8,4.8h5.1v-4.1Z"/>
      <path d="M800.1,522.8c.2.6.3.8.6,1.2.6.7,1.4,1,2.5,1,2,0,3.3-1.3,3.3-3.3s-1.2-3.2-3.1-3.2-1.9.3-2.5.9c-.3.3-.4.5-.6.9l-2.5-.2c.2-1.4.2-1.5.3-2.1l.5-5c0-.4,0-1,0-2,.6,0,1.1,0,2.1,0h4.9c1.4,0,1.9,0,2.8-.2v2.5c-.9-.1-1.7-.2-2.8-.2h-4.7l-.3,3.5c0,.2,0,.4-.1.8,1-.8,2-1.2,3.4-1.2s2.9.5,3.9,1.5c1,1,1.4,2.2,1.4,3.8,0,3.5-2.3,5.7-6,5.7s-3.5-.6-4.6-1.7c-.5-.6-.8-1.1-1.3-2.2l2.8-.6Z"/>
      <path d="M813.3,525.6c-.6-.6-1.1-1.3-1.3-2-.5-1.4-.8-3-.8-4.6s.5-4.3,1.2-5.5c1.1-1.8,2.9-2.8,5.1-2.8s3.2.6,4.2,1.6,1.1,1.3,1.3,2c.5,1.4.8,3,.8,4.6,0,2.5-.5,4.6-1.5,5.9-1.1,1.6-2.8,2.4-4.9,2.4s-3.1-.6-4.2-1.6ZM819.7,524.1c.9-.9,1.4-2.8,1.4-5.1s-.5-4.1-1.4-5.1c-.5-.5-1.3-.8-2.2-.8s-1.7.3-2.2,1c-.9,1-1.3,2.7-1.3,4.9s.4,3.8,1,4.8c.6.9,1.5,1.3,2.6,1.3s1.7-.3,2.2-.8Z"/>
    </g>
    <g>
      <path d="M934.3,488.6c.3.9.4,1.2.9,1.6.7.5,1.5.8,2.4.8,2,0,3.2-1,3.2-2.6s-.4-1.7-1.1-2.1c-.5-.3-1.4-.5-2.3-.5s-1.5,0-2.1,0v-2.5c.6,0,1.1,0,1.9,0,2,0,3.2-.9,3.2-2.5s-.9-2.2-2.6-2.2-1.7.2-2.2.6c-.4.4-.6.7-.8,1.5l-2.9-.5c.5-1.5,1-2.2,1.9-2.9,1-.7,2.3-1.1,3.9-1.1,3.3,0,5.5,1.7,5.5,4.3s-.5,2.3-1.4,2.9c-.4.3-.9.5-1.9.8,1.4.2,2.2.6,2.9,1.3.7.7,1,1.6,1,2.8s-.5,2.2-1.2,2.9c-1.1,1.1-2.8,1.6-4.9,1.6s-3.9-.6-5.1-1.9c-.5-.6-.8-1.1-1.1-2.2l2.9-.6Z"/>
      <path d="M948.5,492.9c-1.6,0-1.9,0-2.6,0,.1-1.1.3-1.8.5-2.6.5-1.5,1.4-2.7,2.7-3.9.7-.6,1.3-1.1,3.3-2.4,1.8-1.3,2.4-1.9,2.4-2.9s-1.1-2.2-2.8-2.2-2,.4-2.5,1.2c-.3.5-.5.9-.6,1.8l-2.9-.3c.3-1.5.6-2.3,1.4-3.2,1-1.2,2.6-1.8,4.6-1.8,3.5,0,5.7,1.7,5.7,4.4s-.4,2.3-1.4,3.2c-.6.5-.8.7-3.4,2.5-.9.6-1.9,1.5-2.4,2-.6.6-.8,1-1.1,1.8h5.6c1.3,0,2.3,0,2.9-.2v2.6c-.9,0-1.7-.1-3-.1h-6.4Z"/>
      <path d="M963.3,492.9c0,1.7-.4,2.4-2.1,3l-.7-1.1c1.2-.3,1.5-.7,1.5-1.9h-1.7v-2.9h2.9v2.9Z"/>
      <path d="M970.5,492.9c.1-.8.2-1.6.2-2.6v-11h-1c-.7,0-1.3,0-2.1.1v-2.5c.6,0,1.1.1,2,.1h1.8c1,0,1.3,0,2,0-.1,1.2-.2,2.1-.2,3.3v10.1c0,1.1,0,1.8.2,2.6h-3Z"/>
      <path d="M981.7,491.6c-.6-.6-1.1-1.3-1.3-2-.5-1.4-.8-3-.8-4.6s.5-4.3,1.2-5.5c1.1-1.8,2.9-2.8,5.1-2.8s3.2.6,4.2,1.6,1.1,1.3,1.3,2c.5,1.4.8,3,.8,4.6,0,2.5-.5,4.6-1.5,5.9-1.1,1.6-2.8,2.4-4.9,2.4s-3.1-.6-4.2-1.6ZM988,490.1c.9-.9,1.4-2.8,1.4-5.1s-.5-4.1-1.4-5.1c-.5-.5-1.3-.8-2.2-.8s-1.7.3-2.2,1c-.9,1-1.3,2.7-1.3,4.9s.4,3.8,1,4.8c.6.9,1.5,1.3,2.6,1.3s1.7-.3,2.2-.8Z"/>
      <path d="M996.7,488.6c.3.9.4,1.2.9,1.6.7.5,1.5.8,2.4.8,2,0,3.2-1,3.2-2.6s-.4-1.7-1.1-2.1c-.5-.3-1.4-.5-2.3-.5s-1.5,0-2.1,0v-2.5c.6,0,1.1,0,1.9,0,2,0,3.2-.9,3.2-2.5s-.9-2.2-2.6-2.2-1.7.2-2.2.6c-.4.4-.6.7-.8,1.5l-2.9-.5c.5-1.5,1-2.2,1.9-2.9,1-.7,2.3-1.1,3.9-1.1,3.3,0,5.5,1.7,5.5,4.3s-.5,2.3-1.4,2.9c-.4.3-.9.5-1.9.8,1.4.2,2.2.6,2.9,1.3.7.7,1,1.6,1,2.8s-.5,2.2-1.2,2.9c-1.1,1.1-2.8,1.6-4.9,1.6s-3.9-.6-5.1-1.9c-.5-.6-.8-1.1-1.1-2.2l2.9-.6Z"/>
    </g>
    <g>
      <path d="M1116.9,453.6c.3.9.4,1.2.9,1.6.7.5,1.5.8,2.4.8,2,0,3.2-1,3.2-2.6s-.4-1.7-1.1-2.1c-.5-.3-1.4-.5-2.3-.5s-1.5,0-2.1,0v-2.5c.6,0,1.1,0,1.9,0,2,0,3.2-.9,3.2-2.5s-.9-2.2-2.6-2.2-1.7.2-2.2.6c-.4.4-.6.7-.8,1.5l-2.9-.5c.5-1.5,1-2.2,1.9-2.9,1-.7,2.3-1.1,3.9-1.1,3.3,0,5.5,1.7,5.5,4.3s-.5,2.3-1.4,2.9c-.4.3-.9.5-1.9.8,1.4.2,2.2.6,2.9,1.3.7.7,1,1.6,1,2.8s-.5,2.2-1.2,2.9c-1.1,1.1-2.8,1.6-4.9,1.6s-3.9-.6-5.1-1.9c-.5-.6-.8-1.1-1.1-2.2l2.9-.6Z"/>
      <path d="M1131.2,453.6c.3.9.4,1.2.9,1.6.7.5,1.5.8,2.4.8,2,0,3.2-1,3.2-2.6s-.4-1.7-1.1-2.1c-.5-.3-1.4-.5-2.3-.5s-1.5,0-2.1,0v-2.5c.6,0,1.1,0,1.9,0,2,0,3.2-.9,3.2-2.5s-.9-2.2-2.6-2.2-1.7.2-2.2.6c-.4.4-.6.7-.8,1.5l-2.9-.5c.5-1.5,1-2.2,1.9-2.9,1-.7,2.3-1.1,3.9-1.1,3.3,0,5.5,1.7,5.5,4.3s-.5,2.3-1.4,2.9c-.4.3-.9.5-1.9.8,1.4.2,2.2.6,2.9,1.3.7.7,1,1.6,1,2.8s-.5,2.2-1.2,2.9c-1.1,1.1-2.8,1.6-4.9,1.6s-3.9-.6-5.1-1.9c-.5-.6-.8-1.1-1.1-2.2l2.9-.6Z"/>
      <path d="M1145.9,457.9c0,1.7-.4,2.4-2.1,3l-.7-1.1c1.2-.3,1.5-.7,1.5-1.9h-1.7v-2.9h2.9v2.9Z"/>
      <path d="M1151.1,454c.2.6.4.8.6,1.1.5.5,1.3.8,2.3.8s1.7-.3,2.3-.8c1-1,1.5-2.4,1.6-4.8-.4.6-.6.8-1.1,1.1-.9.6-1.9.9-3.2.9-3.3,0-5.4-2-5.4-5.3s.9-3.7,2.5-4.7c.9-.6,2.1-.9,3.5-.9,2.6,0,4.7,1.5,5.5,3.9.4,1.1.6,2.5.6,4.1,0,3-.8,5.7-2.1,6.9-1.1,1.1-2.4,1.5-4.3,1.5s-2.9-.4-3.9-1.2c-.7-.5-1.1-1.1-1.6-2.2l2.8-.7ZM1157.4,447c0-1.9-1.4-3.2-3.4-3.2s-3.3,1.4-3.3,3.3,1.2,3.2,3.2,3.2,3.4-1.4,3.4-3.3Z"/>
      <path d="M1163.9,448.5c-.6-.6-1-1.6-1-2.6,0-2.6,2.2-4.2,5.6-4.2s4.2.8,5.1,2.2c.3.6.5,1.3.5,2,0,1.9-1.1,3.2-2.9,3.7.9.1,1.5.4,2.2.9.9.8,1.4,1.8,1.4,3.1,0,3-2.2,4.6-6.3,4.6s-3.9-.5-5.1-1.6c-.7-.7-1.2-1.8-1.2-3s.5-2.5,1.6-3.3c.7-.5,1.2-.7,2-.8-.8-.2-1.4-.5-1.9-1.1ZM1171.9,453.4c0-1.7-1.3-2.7-3.5-2.7s-3.5,1-3.5,2.7,1.3,2.6,3.4,2.6,3.5-.9,3.5-2.6ZM1165.6,446.1c0,1.5,1.1,2.4,2.9,2.4s2.9-.9,2.9-2.4-1.1-2.3-2.9-2.3-2.9.9-2.9,2.3Z"/>
      <path d="M1185.9,445.9c-.5-1.5-1.3-2-2.7-2s-2.5.7-3.1,2.1c-.5,1-.7,2-.8,3.5,1.1-1.5,2.3-2,4.3-2s3.8.9,4.6,2.4c.5.8.7,1.8.7,3,0,3.2-2.4,5.4-5.8,5.4s-3.1-.5-4.1-1.3c-1.5-1.3-2.3-3.7-2.3-6.7s.6-4.8,1.6-6.2c1.2-1.6,2.8-2.4,4.9-2.4s3.1.5,4.1,1.5c.5.5.8,1,1.3,2l-2.7.6ZM1179.6,452.9c0,1.8,1.4,3.2,3.4,3.2s2.2-.5,2.7-1.4c.3-.5.5-1.1.5-1.8,0-2-1.2-3.1-3.2-3.1s-3.4,1.4-3.4,3.2Z"/>
    </g>
  </g>
</svg>