<svg xmlns="http://www.w3.org/2000/svg" viewBox="0 0 382.73 71.22"><path d="M10.75,37H1.63V55.79H0V35.35H10.75Z" style="fill:#0cc"/><path d="M25.35,46.59a2,2,0,0,0-.08.57,11.19,11.19,0,0,0,1.67,4.18,21.19,21.19,0,0,0,4.22,5.44,30.26,30.26,0,0,0,5.4-11.25c4.86,1.94,5.66,2.36,5.66,2.74s-.46.53-1.86.6a37.32,37.32,0,0,1-6.24,10.3c4,2.77,9,4.48,15.89,5.43l0,.46a4.18,4.18,0,0,0-2.17,1.37,6.81,6.81,0,0,0-1.4,2.47c-.19.49-.27.61-.54.61A11.39,11.39,0,0,1,43,68.59a33.07,33.07,0,0,1-11.1-7.06,27.58,27.58,0,0,1-7.67,5.24,37.81,37.81,0,0,1-9.65,3l-.19-.57a40.68,40.68,0,0,0,10-5.7,35.26,35.26,0,0,0,5.17-4.79c-2-2.88-3-4.9-4.91-10A5,5,0,0,0,23.83,47ZM14.94,50.13a34.14,34.14,0,0,0,6-6.69,28.73,28.73,0,0,0,3.73-6.91c5.58,2,5.89,2.2,5.89,2.62s-.57.61-1.94.64a32.51,32.51,0,0,1-6.27,6.54,36.72,36.72,0,0,1-7.11,4.22Zm19.79-13A52.32,52.32,0,0,1,44.8,41.39c2.28,1.37,3.08,2.47,3.08,4.25,0,1.94-.84,3.61-1.79,3.61-.49,0-.91-.38-1.52-1.33a49.74,49.74,0,0,0-4.29-5.35,32.84,32.84,0,0,0-5.81-5.06Z" style="fill:#0cc"/><path d="M68.74,67.57a19.74,19.74,0,0,0,9.2-5.4,14.15,14.15,0,0,0,3.8-10c0-6.5-3.95-10.37-10.49-10.37a12.84,12.84,0,0,0-1.52.07A5.67,5.67,0,0,1,71.48,46c0,3-1.94,8.36-4.67,12.95-2.47,4.11-4.68,6.2-6.58,6.2a2.52,2.52,0,0,1-2-1.1,9.59,9.59,0,0,1-.87-2.51,6.59,6.59,0,0,0-1.64-2.81,7.3,7.3,0,0,1-1.48-4.37,12.56,12.56,0,0,1,3.19-7.6,18.87,18.87,0,0,1,14.33-6.23c8.47,0,14.51,5.35,14.51,12.88,0,5.51-3,9.91-8.55,12.46A28.24,28.24,0,0,1,68.9,68.1ZM61.64,46a13,13,0,0,0-4.07,9c0,2.62,1.29,5.32,2.59,5.32s3.76-3.15,6.23-7.83c1.9-3.57,3-6.72,3-8.39a4.23,4.23,0,0,0-.16-1.26A3.32,3.32,0,0,0,69,42,13.69,13.69,0,0,0,61.64,46Z" style="fill:#0cc"/><path d="M100.78,68.86c0,.87-.53,1-3.16,1-1.36,0-1.55-.12-1.55-.92.22-6.76.26-10.86.26-19.53,0-7.78,0-9.65-.23-12.88a39.78,39.78,0,0,1,5.1,2.55h14.47c1-1.1,1.37-1.44,2.4-2.55,1.52,1.11,2,1.45,3.34,2.55.38.3.53.49.53.72s-.3.61-1.44,1.22l0,6.08c0,11.36,0,13.83.27,21.31,0,.46-.08.65-.27.8a6.29,6.29,0,0,1-2.85.42c-1.29,0-1.6-.12-1.6-.72v-2.4H100.78ZM116,39.91H100.78V51.84H116ZM100.78,52.64v13.1H116V52.64Z" style="fill:#0cc"/><path d="M129.85,69.58H139V50.77h1.63V71.22H129.85Z" style="fill:#0cc"/><path d="M178.75,57.2a48.6,48.6,0,0,0,5.55-7.3,6.4,6.4,0,0,0,.72-1.37.25.25,0,0,0-.26-.23c-.95,0-7.83,2.44-10.91,3.88-.15,1.71-.23,3.84-.23,5.24,0,5.06.65,5.89,4.68,5.89a17.05,17.05,0,0,0,6.84-1.18,2,2,0,0,1,.91-.26,4.76,4.76,0,0,1,2.13.8,2.84,2.84,0,0,1,1.7,2.24,1.5,1.5,0,0,1-1.36,1.48A39.32,39.32,0,0,1,181,67c-5.74,0-8.51-1.1-9.57-3.88-.65-1.71-.91-4.21-1-9.68a39.29,39.29,0,0,0-5.25,2.69,2.08,2.08,0,0,1-1.33.54c-1.82,0-4.59-3.27-4.59-5.44a3.6,3.6,0,0,1,.11-.61,4.1,4.1,0,0,0,3.34,2.09c1.07,0,3.88-.76,7.64-2a62.11,62.11,0,0,0-.34-8.74c-.3-1.21-1.29-2-3.15-2.47a2.49,2.49,0,0,1,1.93-.57,12.69,12.69,0,0,1,4.94,1.29c1.14.61,1.75,1.3,1.75,2,0,.38,0,.45-.46,1.25-.56,1.07-.83,2.51-1.1,6.12,2.09-.65,6.23-2,7.72-2.55,2-.72,2-.76,2.81-1.44a1.86,1.86,0,0,1,1.25-.53,6.76,6.76,0,0,1,3.69,2c1.1,1,1.55,1.63,1.55,2.28s-.26.91-1.25,1.33A10.17,10.17,0,0,0,187.64,52a42,42,0,0,1-8.58,5.47Z" style="fill:#0cc"/><path d="M230.51,49.33a36.64,36.64,0,0,1-8,9.61A55,55,0,0,1,211.43,66a5.12,5.12,0,0,0-1.86,1.33,1.65,1.65,0,0,1-1.14.57c-1.18,0-3.57-3-3.57-4.56,0-.27,0-.27.23-.91.34-.88.38-1.6.38-5.81s-.15-10.57-.27-12.28c-.19-2.62-.87-3.53-3.23-4.25a2.6,2.6,0,0,1,1.6-.5A10.45,10.45,0,0,1,208.05,41c1.6.8,2.32,1.6,2.32,2.55a2,2,0,0,1-.23.95,9.77,9.77,0,0,0-.61,2.66c-.34,3-.72,10.45-.72,13.83v1.29a54.64,54.64,0,0,0,12.84-6.31,49.15,49.15,0,0,0,8.48-6.88Z" style="fill:#0cc"/><path d="M238.34,55.83a46.16,46.16,0,0,0,9.76-11.74c1.18-2,1.64-3,1.64-3.8a1.86,1.86,0,0,0-.53-1.33,3.93,3.93,0,0,0-1.83-1.29,2.18,2.18,0,0,1,1-.23,9.82,9.82,0,0,1,5,2,2.45,2.45,0,0,1,1.22,1.75c0,.53-.08.68-1,1.9,0,0-.49.65-1.06,1.41.34,0,.61.07.76.07a35.57,35.57,0,0,0,3.95-.53,7.57,7.57,0,0,0,2.62-.84c.69-.34.84-.41,1.14-.41a4.79,4.79,0,0,1,2.62,1.59c1,1,1.48,1.71,1.48,2.32a1.44,1.44,0,0,1-.72,1.21c-.8.57-.83.61-1.93,2.47a45.88,45.88,0,0,1-6.69,9.16A37.13,37.13,0,0,1,239.29,69.7l-.19-.42a32.32,32.32,0,0,0,5.51-3.65A51.21,51.21,0,0,0,256,53.09a44.64,44.64,0,0,0,3.5-6.57,3.77,3.77,0,0,0,.15-.5.55.55,0,0,0,.08-.19c0-.07-.08-.15-.12-.19h-.11a.33.33,0,0,1-.15,0s-.08,0-.15.07a2.86,2.86,0,0,1-.42.08,21.85,21.85,0,0,0-2.89.64c-.8.27-.8.27-1.44.46a3.76,3.76,0,0,1-.5.08,3.68,3.68,0,0,1-2.35-1.3,34.89,34.89,0,0,1-13,10.57Z" style="fill:#0cc"/><path d="M276.53,47.43a19.74,19.74,0,0,1,7.64,1.94,3,3,0,0,1,1.63,2.77c0,1.52-.8,2.66-1.82,2.66-.65,0-.92-.19-1.56-1.21a23.49,23.49,0,0,0-2.81-3.39,16.13,16.13,0,0,0-3.23-2.43Zm30.81-1.37c-4.18,7.11-10.86,13.49-19.87,18.89-2.24,1.36-2.47,1.48-3.19,2.24a1.63,1.63,0,0,1-1.1.49c-1.9,0-5.17-4.29-5.17-6.8a3,3,0,0,1,.27-1.14c.87,1.75,2.16,2.81,3.38,2.81s4.29-1.33,8.24-3.61A82.49,82.49,0,0,0,307,45.76Zm-26.48-5.92c3.72.41,6.35,1.14,7.9,2.24A2.89,2.89,0,0,1,290.21,45c0,1.48-.84,2.66-1.86,2.66-.65,0-.84-.19-1.64-1.45a17.17,17.17,0,0,0-6-5.73Z" style="fill:#0cc"/><path d="M320.3,48.76a2.84,2.84,0,0,0,1.94.42c1.41,0,7-.5,9.73-.84a3.62,3.62,0,0,0,2-.68,1.3,1.3,0,0,1,.72-.19,5.06,5.06,0,0,1,2.7,1.59c.84.73,1.1,1.14,1.1,1.68,0,.26-.07.41-.38.76s-.34.45-.68,2.28c-.72,3.95-1,5.62-1.71,9.76,1.1.68,1.63,1.37,1.63,2.09a.94.94,0,0,1-.95,1,2.75,2.75,0,0,1-.53,0,35.52,35.52,0,0,0-3.57-.23,28.53,28.53,0,0,0-9.5,1.49,2.31,2.31,0,0,1-.8.19,3.42,3.42,0,0,1-2.5-1.75,4.66,4.66,0,0,1-1-2.36,1.7,1.7,0,0,1,.19-.68,3.36,3.36,0,0,0,3,1.82,59.2,59.2,0,0,0,6.2-.68c1.48-.19,2.28-.27,4.82-.53.19-1.14.42-3.39.69-6.12a50.39,50.39,0,0,0-10.15,1.71,2.15,2.15,0,0,1-.83.19c-1.18,0-3-2.32-3-3.84a1.56,1.56,0,0,1,.19-.68,2.75,2.75,0,0,0,2.7,1.67,33.78,33.78,0,0,0,4.41-.42c1.82-.23,3.3-.34,6.84-.68.23-2.13.38-4.56.38-5.28A50.36,50.36,0,0,0,323.15,52c-.64.27-.68.27-1,.27a2.48,2.48,0,0,1-2-1.18,5,5,0,0,1-1.29-2.93,2,2,0,0,1,.19-.79A3.66,3.66,0,0,0,320.3,48.76Z" style="fill:#0cc"/><path d="M353.86,41.47c4.25.68,6.53,1.33,8.32,2.47A3.56,3.56,0,0,1,364,47.2c0,1.79-.87,3.16-2.05,3.16-.65,0-1-.31-1.6-1.3a17.89,17.89,0,0,0-6.72-7.18Zm28.87,2.2a40.77,40.77,0,0,1-8.54,11.78,62,62,0,0,1-11,8.66,8.74,8.74,0,0,0-2.05,1.67,2.09,2.09,0,0,1-1.6,1c-1,0-2.39-1.06-3.72-2.77A7.24,7.24,0,0,1,354,59.74a3.06,3.06,0,0,1,.19-1c1,1.75,2.28,2.82,3.31,2.82,1.59,0,6.57-2.63,11.09-5.85a75,75,0,0,0,13.72-12.24Z" style="fill:#0cc"/><path d="M100.83,21.45l-.63.63L78.54.62,79.16,0Z" style="fill:#0cc"/><path d="M101.61,11.47a30.7,30.7,0,0,0,5.77-5.56,19.34,19.34,0,0,0,3.15-5.5c4,.88,4,.88,4,1.13s-.26.35-1,.51a13.22,13.22,0,0,0,4.58,4,15.71,15.71,0,0,0,5.63,2.05v.28a2.72,2.72,0,0,0-1.22.92,5.58,5.58,0,0,0-.69,1.45c-.09.32-.16.39-.32.39A6.45,6.45,0,0,1,119.55,10a17.68,17.68,0,0,1-4.39-4.28,22,22,0,0,1-2-3.43,23.25,23.25,0,0,1-5.33,5.87,25,25,0,0,1-6,3.51Zm2.65.79a8.23,8.23,0,0,0,1.81.2h10.31c.59-.62.78-.82,1.4-1.42.92.64,1.19.85,2.09,1.52.21.18.3.29.3.41s-.3.46-1.08.69a79,79,0,0,1-3.93,7.56.79.79,0,0,1-.74.37,5.35,5.35,0,0,1-2.09-.37.34.34,0,0,1-.19-.29,1.12,1.12,0,0,1,.19-.42,51.8,51.8,0,0,0,4-7.56H106.05a7.86,7.86,0,0,0-1.63.13Zm3.26-3.59a7.14,7.14,0,0,0,1.52.16h4.18c.72-.85,1-1.1,1.66-1.89,1.1.83,1.43,1.11,2.48,2,.1.09.14.16.14.2s-.11.16-.27.16H109a7.13,7.13,0,0,0-1.33.12Z" style="fill:#0cc"/><path d="M138.16,8.83h2.46c.71-.78.94-1,1.65-1.84,1.08.83,1.43,1.08,2.49,1.93a.53.53,0,0,1,.11.21.22.22,0,0,1-.23.18h-6.48v5.61h3.49c.81-.87,1.06-1.12,1.89-2,1.12.9,1.47,1.18,2.55,2.12a.42.42,0,0,1,.11.21c0,.09-.09.16-.25.16h-7.79v2c0,.35,0,2.09.07,3.5,0,.39-.07.52-.3.62a5.48,5.48,0,0,1-1.54.16c-.81,0-.95-.07-.95-.44v-.11c.07-2.63.09-3.06.09-3.59V15.41h-8.27c-.33,0-1.5.09-2,.13l-.14-.8a13.13,13.13,0,0,0,2.1.18h1.49V10.05c0-1.27,0-1.75-.09-2.9,1.33.71,1.72.94,3,1.68h3.88V4.39h-4.46a22.19,22.19,0,0,1-5.47,5.27l-.18-.23a23.49,23.49,0,0,0,3.17-5.11A20.17,20.17,0,0,0,130,.37a21.19,21.19,0,0,1,3.68,1.17.32.32,0,0,1,.11.23c0,.25-.16.32-1.2.46a14.43,14.43,0,0,1-1.19,1.68h9.68c.57-.64,1.17-1.29,1.75-1.93,1.19.87,1.54,1.15,2.69,2.07a.33.33,0,0,1,.11.18c0,.09-.09.16-.23.16h-7.26Zm-6.81.48v5.61h4.18V9.31Z" style="fill:#0cc"/><path d="M154.9,10.76l-.76,2.92a19.69,19.69,0,0,0-.73,4c0,.19,0,.39,0,.76a5.28,5.28,0,0,1,.05.62,1.12,1.12,0,0,1-1.1,1.2c-.56,0-1-.39-1.38-1.2a13.07,13.07,0,0,1-.81-4.87,33,33,0,0,1,1.06-7.77A10.83,10.83,0,0,0,151.66,4,3.9,3.9,0,0,0,151,1.75a3.58,3.58,0,0,1,2,1.33,4.2,4.2,0,0,1,1.24,2.42,2,2,0,0,1-.41,1.19,16.5,16.5,0,0,0-.9,1.77,14.73,14.73,0,0,0-1,5.06,7.91,7.91,0,0,0,.25,2.21c.39-.74.55-1.06,1.1-2.25s.74-1.55,1.36-2.79Zm1.61-4a4.07,4.07,0,0,0,2.94,1.11,12,12,0,0,0,2.67-.32c0-2.88-.07-3.54-.25-4-.23-.6-.85-.92-1.84-1A2,2,0,0,1,161.55,2a5.6,5.6,0,0,1,2.43.51c.6.25.9.6.9,1a1.63,1.63,0,0,1-.23.78,6.34,6.34,0,0,0-.55,2.62,5.18,5.18,0,0,0,2.05-1,.77.77,0,0,1,.55-.23,2.34,2.34,0,0,1,1.45.55.91.91,0,0,1,.23.58c0,.69-1.43,1.31-4.4,1.95v.88a37.15,37.15,0,0,0,.33,5,8.72,8.72,0,0,1,3,1.38,2.22,2.22,0,0,1,1,1.89c0,.83-.32,1.38-.81,1.38-.27,0-.34-.07-1.31-1a7.47,7.47,0,0,0-1.84-1.4,1.29,1.29,0,0,1,0,.3c0,1.77-1.52,2.85-4.07,2.85-2.28,0-3.8-1.08-3.8-2.71,0-1.82,1.89-3.06,4.67-3.06.32,0,.6,0,1.06.05,0-.28-.05-4-.09-5.27a11.81,11.81,0,0,1-1.61.14,4.39,4.39,0,0,1-2.76-.78,5.9,5.9,0,0,1-1.45-1.54Zm3.54,9.11c-1.72,0-2.8.58-2.8,1.5,0,.73.87,1.24,2.2,1.24a3.1,3.1,0,0,0,2.19-.69,1.7,1.7,0,0,0,.46-1c0-.16.05-.55.05-.71s0-.05,0-.05A6,6,0,0,0,160.05,15.82Z" style="fill:#0cc"/><path d="M183.86,8.49A5,5,0,0,1,189,13.8a5.56,5.56,0,0,1-5.91,5.86c-3.91,0-6-2.87-6-8.21,0-3.1.64-5.63,1.81-7.2a5.44,5.44,0,0,1,4.67-2.18c2.78,0,4.87,1.24,4.87,2.9,0,.82-.62,1.33-1.65,1.33a1.6,1.6,0,0,1-1.27-.44c-.13-.18-.13-.25-.2-1.19-.07-1.31-.74-2-1.82-2-1.4,0-2.39,1.06-2.87,3a20,20,0,0,0-.49,4.37A4.85,4.85,0,0,1,183.86,8.49Zm-3.31,2.36a4.47,4.47,0,0,0-.46,2.3,11.06,11.06,0,0,0,.73,4.19,2.61,2.61,0,0,0,2.33,1.75c1.74,0,2.8-2,2.8-5.22,0-2.86-1.08-4.63-2.85-4.63A3,3,0,0,0,180.55,10.85Z" style="fill:#0cc"/><path d="M203.25,12.81a12.17,12.17,0,0,1-2.42,5.93,12.59,12.59,0,0,1-3.19,2.92l-.16-.18A14.07,14.07,0,0,0,200.35,15a40.63,40.63,0,0,0,.51-8.28c0-3.06,0-4.39-.14-6.39a33.8,33.8,0,0,1,3.19,1.56h7.57c.57-.67.74-.85,1.36-1.49.92.62,1.17.82,2,1.45.23.18.33.29.33.41s-.21.37-.86.69v7.93c0,2.16,0,4.53.1,7.68a2.44,2.44,0,0,1-.3,1.5,5.32,5.32,0,0,1-3.2,1.26c-.25,0-.3-.07-.34-.41a1.83,1.83,0,0,0-1.25-1.54,14,14,0,0,0-3.15-.83l0-.3c1.93.12,2.34.14,4.94.21.39,0,.48-.07.48-.39V12.81Zm8.41-5.22h-8.14a44.8,44.8,0,0,1-.2,4.74h8.34Zm0-5.18h-8.09c0,1.71,0,1.71,0,4.7h8.11Z" style="fill:#0cc"/><path d="M227.81,18.65a3.19,3.19,0,0,0,1.73-.28c.53-.27.69-.87.69-2.34V5.45a7.94,7.94,0,0,0-.07-1.38c-.09-.51-.39-.62-1.57-.62H228V2.81c2.19-.19,3.87-.42,5.38-.69-.13,1.63-.2,3.56-.2,5.79V16c0,1.4.14,2,.55,2.3s.6.3,1.77.32v.64h-7.66Z" style="fill:#0cc"/><path d="M244.83,13.27a5,5,0,0,1-5.15-5.34,5.57,5.57,0,0,1,5.93-5.86,5.22,5.22,0,0,1,4.58,2.25,10.19,10.19,0,0,1,1.45,6c0,6.12-2.25,9.38-6.49,9.38-2.8,0-4.89-1.24-4.89-2.92,0-.9.62-1.43,1.65-1.43a1.64,1.64,0,0,1,1.27.44c.13.21.13.25.2,1.24.1,1.36.74,2.1,1.84,2.1,1.38,0,2.37-1.06,2.85-3a19.81,19.81,0,0,0,.49-4.37A4.91,4.91,0,0,1,244.83,13.27Zm3.31-2.37a4.5,4.5,0,0,0,.46-2.32,11.58,11.58,0,0,0-.73-4.19,2.61,2.61,0,0,0-2.33-1.75c-1.74,0-2.8,2-2.8,5.22a6,6,0,0,0,.9,3.59,2.38,2.38,0,0,0,2,1.06A3.05,3.05,0,0,0,248.14,10.9Z" style="fill:#0cc"/><path d="M265.49,20.44c0,.53-.33.62-1.91.62-.83,0-.95-.07-.95-.55.14-4.09.17-6.58.17-11.82,0-4.71,0-5.84-.14-7.79a22.7,22.7,0,0,1,3.08,1.54h8.76c.62-.67.83-.88,1.45-1.54.92.66,1.19.87,2,1.54.23.18.32.3.32.43s-.18.37-.87.74l0,3.68c0,6.87,0,8.37.16,12.9,0,.28-.05.39-.16.48a3.87,3.87,0,0,1-1.73.26c-.78,0-1-.07-1-.44V19h-9.22Zm9.22-17.52h-9.22v7.22h9.22Zm-9.22,7.7v7.94h9.22V10.62Z" style="fill:#0cc"/><path d="M304.19.62,282.53,22.08l-.62-.63L303.57,0Z" style="fill:#0cc"/></svg>